<svg width="368" height="368" viewBox="0 0 368 368" fill="none" xmlns="http://www.w3.org/2000/svg">
<g opacity="0.2">
<path d="M181.424 173.034C180.055 169.847 179.952 166.652 179.952 163.385L179.834 153.368C179.746 148.171 179.753 142.887 179.761 137.779V133.363C179.82 121.388 179.996 109.208 180.173 97.4316L180.232 93.3026C180.31 88.5922 180.389 83.8794 180.467 79.1641C180.6 70.6633 180.74 61.8754 180.938 53.2348L181.402 33.2009C181.476 30.934 181.542 28.6622 181.601 26.3855C181.667 24.1775 181.733 21.9695 181.799 19.7026C181.866 21.9474 181.932 24.1849 181.998 26.3855C182.064 28.5862 182.123 30.934 182.197 33.2082L182.661 53.2348C182.859 61.8754 182.999 70.6633 183.132 79.1567C183.21 83.872 183.289 88.5873 183.367 93.3026L183.426 97.4389C183.603 109.215 183.779 121.388 183.838 133.37V137.823C183.838 142.931 183.838 148.208 183.765 153.39L183.639 163.392C183.639 166.66 183.529 169.854 182.167 173.041L181.424 173.034Z" fill="#F34414"/>
<path d="M181.365 173.107C179.466 170.2 178.796 167.072 178.23 163.863L176.375 154.008C175.381 148.893 174.469 143.704 173.585 138.625L172.849 134.298C170.833 122.522 168.897 110.51 167.02 98.8961L166.351 94.7597C165.62 90.1131 164.884 85.4665 164.143 80.8199C162.766 72.4221 161.375 63.7373 160.073 55.1997L157.055 35.3866C156.731 33.1492 156.402 30.9117 156.069 28.6743C155.745 26.4663 155.421 24.2583 155.097 22.0503C155.553 24.2215 155.995 26.3853 156.437 28.5197L157.828 35.2762L161.773 54.9201C163.458 63.3473 165.107 71.929 166.711 80.2311C167.609 84.9072 168.512 89.5685 169.42 94.2151L170.215 98.3514C172.423 109.892 174.704 121.83 176.839 133.591L177.575 137.919C178.473 142.96 179.4 148.179 180.217 153.323L181.843 163.215C182.41 166.431 182.852 169.596 182.064 172.974L181.365 173.107Z" fill="#F34414"/>
<path d="M181.321 173.188C178.944 170.656 177.744 167.69 176.625 164.621L173.092 155.244C171.223 150.372 169.412 145.389 167.668 140.569L166.196 136.447C162.163 125.201 158.174 113.719 154.31 102.591L152.933 98.6167C151.388 94.1271 149.837 89.6374 148.282 85.1479C145.514 77.1549 142.651 68.8823 139.891 60.7274L133.481 41.7459L131.339 35.2618L129.234 28.9248C130.058 30.993 130.883 33.0538 131.685 35.0851C132.487 37.1165 133.37 39.3466 134.224 41.4736L141.518 60.1386C144.646 68.1757 147.774 76.3306 150.806 84.2794C152.494 88.6954 154.187 93.1114 155.885 97.5274L157.357 101.362C161.552 112.402 165.887 123.773 170.038 135.012L171.561 139.185C173.313 143.984 175.131 148.944 176.824 153.853L180.099 163.392C181.218 166.461 182.204 169.501 182.013 172.96L181.321 173.188Z" fill="#F34414"/>
<path d="M181.284 173.269C178.509 171.194 176.809 168.478 175.183 165.652L170.031 157.033C167.352 152.573 164.717 147.988 162.163 143.557L159.955 139.722C154.015 129.315 148.076 118.665 142.328 108.369L140.333 104.792C138.051 100.67 135.762 96.551 133.466 92.4343C129.337 85.0081 125.061 77.3242 120.91 69.7434L111.335 52.1604C110.26 50.1536 109.181 48.1492 108.096 46.1473L104.931 40.2593L108.42 45.9118C109.612 47.8744 110.812 49.8199 112.019 51.7482L122.441 68.8676C126.923 76.2276 131.427 83.7642 135.792 91.0433C138.245 95.0962 140.676 99.1515 143.086 103.209L145.198 106.75C151.233 116.862 157.482 127.358 163.524 137.662L165.732 141.481C168.294 145.897 170.951 150.49 173.475 155.046L178.384 163.782C180.018 166.608 181.52 169.435 181.932 172.879L181.284 173.269Z" fill="#F34414"/>
<path d="M181.269 173.357C178.178 171.797 176.036 169.42 173.909 166.917L167.374 159.314C163.966 155.392 160.573 151.336 157.29 147.413L154.45 144.02C146.825 134.842 139.163 125.444 131.759 116.347L129.05 113.027C126.077 109.347 123.093 105.667 120.1 101.987C114.757 95.4075 109.23 88.6069 103.842 81.8725L91.3522 66.2399L87.0687 60.8229L82.9766 55.6709L87.3926 60.6463L91.941 65.7983L105.189 80.8421C110.886 87.3189 116.626 93.9429 122.183 100.353C125.279 103.93 128.38 107.505 131.486 111.077L134.254 114.279C141.93 123.162 149.872 132.355 157.6 141.466L160.426 144.83C163.723 148.753 167.138 152.808 170.413 156.856L176.765 164.606C178.87 167.109 180.835 169.633 181.836 172.952L181.269 173.357Z" fill="#F34414"/>
<path d="M181.269 173.453C177.95 172.444 175.426 170.509 172.93 168.382L165.18 162.03C161.14 158.755 157.084 155.355 153.184 152.065L149.791 149.209C140.642 141.459 131.391 133.488 122.5 125.782L119.401 123.096C115.839 120 112.272 116.906 108.7 113.815C102.282 108.258 95.6505 102.502 89.159 96.8058L74.1151 83.5578L68.9631 79.0019L63.9951 74.5859C65.7394 75.9623 67.4764 77.3312 69.1471 78.6855L74.5567 82.9543L90.2041 95.4663C96.9311 100.854 103.739 106.381 110.319 111.724L121.44 120.704L124.656 123.324C133.783 130.757 143.218 138.449 152.433 146.096L155.848 148.959C159.756 152.234 163.804 155.62 167.727 159.02L175.322 165.556C177.832 167.653 180.202 169.795 181.77 172.916L181.269 173.453Z" fill="#F34414"/>
<path d="M181.284 173.541C177.847 173.129 175.021 171.628 172.195 169.994L163.458 165.085C158.91 162.567 154.332 159.933 149.908 157.349L146.074 155.141C135.711 149.091 125.238 142.835 115.11 136.793L111.614 134.688L99.4851 127.416C92.1913 123.059 84.64 118.547 77.28 114.08L60.1533 103.629L54.3683 100.096L48.6643 96.5776L54.5523 99.7498L60.5581 102.988L78.1337 112.593C85.7072 116.737 93.3763 121.005 100.795 125.105C104.927 127.401 109.058 129.695 113.189 131.987L116.914 134.069C127.159 139.788 137.757 145.698 148.12 151.616L151.925 153.824C156.341 156.378 160.963 159.02 165.423 161.699L174.042 166.851C176.876 168.485 179.584 170.178 181.667 172.96L181.284 173.541Z" fill="#F34414"/>
<path d="M180.452 173.652C177.317 173.652 174.564 172.732 171.746 171.716L162.288 168.397C157.371 166.704 152.403 164.886 147.605 163.135L143.446 161.611C132.186 157.453 120.778 153.11 109.745 148.915L105.955 147.443L92.7065 142.372C84.7724 139.347 76.5734 136.212 68.5363 133.076L49.8713 125.783L43.4828 123.243L37.3225 120.8L43.6521 122.912L50.1584 125.069L69.1398 131.479C77.2947 134.239 85.5673 137.102 93.5676 139.87C98.0572 141.42 102.544 142.968 107.029 144.514L110.981 145.89C122.095 149.754 133.584 153.743 144.837 157.776L149.01 159.293C153.817 161.037 158.785 162.833 163.635 164.695L173.004 168.235C176.081 169.346 179.047 170.546 181.571 172.923L181.321 173.623L180.452 173.652Z" fill="#F34414"/>
<path d="M177.508 174.13C175.531 174.085 173.561 173.871 171.62 173.49L161.729 171.863C156.613 171.046 151.425 170.126 146.405 169.236L141.989 168.456C130.213 166.314 118.253 164.04 106.698 161.832L102.613 161.052L88.6291 158.35C80.3123 156.746 71.7011 155.083 63.2592 153.397L43.608 149.46C41.4 148.989 39.1404 148.532 36.9104 148.076L30.3894 146.722L36.9398 147.686L43.7625 148.672L63.5683 151.69C72.0985 152.992 80.7612 154.376 89.1296 155.716C93.8056 156.466 98.4792 157.202 103.15 157.924L107.198 158.579C118.842 160.455 130.875 162.398 142.688 164.415L147.06 165.188C152.094 166.064 157.298 166.976 162.398 167.963L172.224 169.839C175.44 170.406 178.568 171.076 181.475 172.975L181.343 173.711C180.085 173.998 178.798 174.138 177.508 174.13Z" fill="#F34414"/>
<path d="M141.724 175.44C129.727 175.381 117.532 175.205 105.734 175.035L101.664 174.977C96.9287 174.888 92.1987 174.81 87.4735 174.741C78.9948 174.601 70.2217 174.461 61.5958 174.263L41.5619 173.799C39.2803 173.725 36.9987 173.666 34.7097 173.6L28.0857 173.401L34.7097 173.21L41.5619 173.011L61.5958 172.54C70.2217 172.342 78.9948 172.202 87.4735 172.069C92.2085 171.996 96.9385 171.917 101.664 171.834L105.881 171.775C117.657 171.606 129.779 171.429 141.724 171.37H150.431C153.765 171.37 157.71 171.37 161.751 171.451L171.768 171.569C175.058 171.569 178.237 171.687 181.424 173.041V173.777C178.237 175.138 175.05 175.249 171.79 175.249L161.751 175.359C157.717 175.433 153.772 175.44 150.453 175.44H141.724Z" fill="#F34414"/>
<path d="M30.4041 200.096L36.8735 198.764L43.6226 197.366L63.2959 193.428C71.7599 191.735 80.3785 190.072 88.71 188.468C93.3566 187.57 97.9958 186.672 102.628 185.774L106.713 184.994C118.268 182.786 130.228 180.489 142.004 178.37L146.376 177.597C151.41 176.699 156.606 175.779 161.736 174.962L171.62 173.335C173.561 172.953 175.531 172.736 177.508 172.688C178.806 172.681 180.1 172.824 181.365 173.115L181.497 173.851C178.59 175.742 175.462 176.412 172.246 176.979L162.398 178.848C157.29 179.842 152.094 180.754 147.038 181.638L142.688 182.374C130.853 184.405 118.79 186.348 107.132 188.262L103.15 188.902L89.1663 191.11C80.7832 192.457 72.1058 193.84 63.5609 195.15L43.7551 198.168C41.4956 198.492 39.2287 198.823 36.9692 199.162L30.4041 200.096Z" fill="#F34414"/>
<path d="M37.3298 225.952L43.4975 223.501C45.6319 222.655 47.759 221.816 49.886 220.962L68.551 213.675C76.6028 210.533 84.8166 207.397 92.758 204.358L105.984 199.338L109.708 197.918C120.748 193.715 132.193 189.365 143.476 185.192L147.619 183.683C152.426 181.924 157.394 180.107 162.339 178.414L171.797 175.094C174.601 174.071 177.369 173.159 180.504 173.159H181.372L181.623 173.858C179.098 176.228 176.132 177.427 173.063 178.546L163.686 182.086C158.836 183.941 153.868 185.766 149.069 187.481L144.889 188.997C133.65 193.031 122.183 197.012 111.092 200.869L107.081 202.26L93.6265 206.912C85.6262 209.679 77.3462 212.542 69.1913 215.302L50.2025 221.713L43.6594 223.921L37.3298 225.952Z" fill="#F34414"/>
<path d="M48.657 250.24L54.3389 246.737L60.1533 243.145L77.28 232.753C84.64 228.27 92.1767 223.766 99.4483 219.409C103.511 216.956 107.571 214.522 111.629 212.108L115.221 209.966C125.319 203.938 135.763 197.704 146.089 191.676L149.938 189.468C154.354 186.907 158.925 184.265 163.466 181.74L172.224 176.809C175.058 175.175 177.884 173.681 181.321 173.269L181.696 173.909C179.613 176.684 176.905 178.384 174.079 180.011L165.46 185.126C161.044 187.798 156.437 190.425 152.021 192.972L148.149 195.18C137.845 201.068 127.269 206.956 117.061 212.66L113.219 214.809C109.068 217.105 104.922 219.409 100.78 221.72C93.3763 225.834 85.7219 230.088 78.1632 234.232L60.5434 243.859L54.5155 247.112L48.657 250.24Z" fill="#F34414"/>
<path d="M64.032 272.217L68.9779 267.801C70.6952 266.275 72.4126 264.749 74.1299 263.223L89.1737 249.975C95.6726 244.264 102.319 238.508 108.744 232.944L119.401 223.744L122.507 221.058C131.427 213.352 140.65 205.388 149.791 197.638L153.147 194.812C157.07 191.515 161.125 188.1 165.173 184.817L172.96 178.428C175.47 176.331 177.987 174.358 181.306 173.357L181.785 173.924C180.217 177.023 177.847 179.164 175.345 181.284L167.742 187.812C163.819 191.22 159.771 194.606 155.855 197.881L152.44 200.744C143.218 208.406 133.761 216.112 124.62 223.56L121.455 226.136C117.775 229.109 114.095 232.088 110.415 235.071C103.828 240.422 97.0195 245.956 90.2851 251.344L74.6377 263.856L69.184 268.14L64.032 272.217Z" fill="#F34414"/>
<path d="M82.9766 291.169C84.3529 289.417 85.7292 287.688 87.0761 285.98L91.3522 280.571L103.864 264.923C109.259 258.196 114.786 251.388 120.13 244.801C123.118 241.126 126.099 237.446 129.072 233.761L131.803 230.42C139.163 221.337 146.854 211.939 154.472 202.775L157.313 199.375C160.595 195.46 163.988 191.404 167.396 187.474L173.924 179.879C176.029 177.376 178.171 174.999 181.284 173.431L181.851 173.91C180.85 177.229 178.907 179.753 176.787 182.248L170.435 190.006C167.153 194.054 163.738 198.102 160.441 202.032L157.614 205.396C149.872 214.522 141.93 223.744 134.254 232.576L131.486 235.778C128.38 239.34 125.279 242.912 122.183 246.494C116.626 252.904 110.886 259.536 105.189 266.013L91.941 281.056L87.4146 286.142C85.9647 287.813 84.478 289.491 82.9766 291.169Z" fill="#F34414"/>
<path d="M104.931 306.536L108.089 300.648C109.178 298.642 110.26 296.635 111.335 294.628L120.947 277.045C125.098 269.464 129.367 261.78 133.503 254.361L140.37 241.989L142.364 238.405C148.113 228.101 154.052 217.473 160.028 207.059L162.236 203.239C164.79 198.823 167.425 194.215 170.104 189.755L175.256 181.137C176.883 178.303 178.583 175.595 181.358 173.512L182.005 173.887C181.593 177.332 180.092 180.15 178.458 182.984L173.549 191.72C171.024 196.269 168.397 200.839 165.813 205.263L163.605 209.097C157.548 219.468 151.292 229.948 145.205 240.083L143.086 243.616C140.632 247.674 138.199 251.731 135.785 255.789C131.427 263.068 126.953 270.59 122.441 277.957L112.019 295.047C110.819 296.976 109.627 298.919 108.435 300.854L104.931 306.536Z" fill="#F34414"/>
<path d="M129.212 317.863L131.31 311.534C132.031 309.37 132.747 307.206 133.459 305.042L139.869 286.053C142.637 277.899 145.5 269.619 148.267 261.618C149.823 257.138 151.371 252.654 152.911 248.164L154.302 244.153C158.159 233.061 162.148 221.595 166.174 210.356L167.646 206.22C169.39 201.406 171.194 196.423 173.063 191.566L176.596 182.189C177.715 179.113 178.914 176.154 181.292 173.622L181.983 173.88C182.175 177.339 181.188 180.386 180.077 183.448L176.787 192.905C175.094 197.822 173.276 202.79 171.517 207.625L170.016 211.754C165.858 223 161.523 234.401 157.327 245.426L155.855 249.239C154.153 253.655 152.457 258.071 150.77 262.487C147.745 270.406 144.617 278.59 141.489 286.628L134.195 305.292L131.656 311.674C130.861 313.727 130.044 315.788 129.212 317.863Z" fill="#F34414"/>
<path d="M155.097 324.797C155.421 322.589 155.745 320.337 156.069 318.173C156.393 316.009 156.731 313.698 157.055 311.453L160.073 291.648C161.383 283.095 162.766 274.403 164.113 266.005C164.859 261.359 165.595 256.712 166.321 252.065L166.991 247.959C168.86 236.337 170.803 224.326 172.82 212.528L173.556 208.2C174.439 203.158 175.352 197.896 176.345 192.825L178.2 182.977C178.767 179.753 179.437 176.625 181.336 173.726L182.072 173.851C182.859 177.229 182.417 180.394 181.851 183.61L180.224 193.502C179.407 198.654 178.48 203.865 177.582 208.914L176.846 213.241C174.712 225.017 172.43 236.955 170.222 248.511L169.434 252.61C168.532 257.286 167.629 261.962 166.726 266.638C165.121 274.94 163.465 283.515 161.787 291.949L157.842 311.593L156.451 318.35C156.032 320.455 155.553 322.618 155.097 324.797Z" fill="#F34414"/>
<path d="M181.792 327.137C181.728 324.885 181.662 322.657 181.593 320.454C181.524 318.251 181.458 315.977 181.394 313.631L180.931 293.598C180.732 284.957 180.592 276.176 180.46 267.676C180.381 262.965 180.303 258.252 180.224 253.537L180.165 249.401C179.989 237.625 179.812 225.444 179.753 213.469V209.053C179.753 203.945 179.753 198.668 179.827 193.472L179.945 183.455C179.945 180.187 180.055 176.993 181.417 173.799H182.153C183.522 176.993 183.625 180.187 183.625 183.448L183.742 193.472C183.831 198.661 183.823 203.938 183.816 209.039V213.44C183.757 225.415 183.58 237.595 183.404 249.371L183.345 253.508C183.266 258.218 183.188 262.931 183.109 267.646C182.977 276.147 182.837 284.927 182.638 293.568L182.175 313.602C182.101 315.879 182.035 318.153 181.976 320.425C181.917 322.697 181.856 324.934 181.792 327.137Z" fill="#F34414"/>
<path d="M208.487 324.797C208.03 322.589 207.589 320.454 207.147 318.327L205.756 311.571L201.811 291.927C200.133 283.492 198.477 274.918 196.872 266.616C195.975 261.94 195.072 257.264 194.164 252.588L193.376 248.488C191.168 236.933 188.88 224.988 186.752 213.219L186.016 208.891C185.119 203.842 184.191 198.631 183.374 193.479L181.748 183.595C181.181 180.371 180.739 177.206 181.527 173.828L182.263 173.703C184.162 176.603 184.832 179.731 185.398 182.947L187.209 192.832C188.202 197.947 189.115 203.173 189.998 208.214L190.734 212.549C192.751 224.325 194.694 236.351 196.563 247.973L197.233 252.08C197.964 256.721 198.7 261.368 199.441 266.02C200.788 274.417 202.172 283.11 203.482 291.662L206.499 311.475C206.823 313.712 207.152 315.95 207.486 318.187C207.839 320.336 208.163 322.559 208.487 324.797Z" fill="#F34414"/>
<path d="M234.372 317.863C233.54 315.788 232.723 313.727 231.921 311.696L229.382 305.307L222.088 286.65C218.96 278.613 215.832 270.458 212.807 262.509C211.114 258.093 209.419 253.677 207.721 249.261L206.249 245.448C202.054 234.408 197.719 223.022 193.561 211.776L192.096 207.596C190.337 202.79 188.519 197.822 186.826 192.876L183.514 183.426C182.395 180.357 181.409 177.31 181.601 173.858L182.292 173.6C184.67 176.132 185.869 179.091 186.988 182.16L190.521 191.536C192.39 196.401 194.201 201.384 195.938 206.198L197.41 210.334C201.436 221.573 205.425 233.039 209.282 244.131L210.673 248.142C212.208 252.622 213.756 257.102 215.317 261.582C218.084 269.589 220.947 277.869 223.714 286.031L230.125 305.02C230.837 307.184 231.553 309.348 232.274 311.512L234.372 317.863Z" fill="#F34414"/>
<path d="M258.652 306.537L255.12 300.803L251.565 295.04L241.143 277.928C236.661 270.568 232.156 263.039 227.799 255.76C225.346 251.697 222.912 247.64 220.498 243.587L218.423 240.105C212.373 229.971 206.117 219.497 200.059 209.12L197.8 205.219C195.253 200.803 192.648 196.262 190.109 191.743L185.2 183.006C183.566 180.173 182.064 177.354 181.652 173.91L182.3 173.534C185.075 175.617 186.775 178.326 188.401 181.152L193.553 189.778C196.232 194.238 198.867 198.823 201.421 203.261L203.629 207.088C209.569 217.495 215.508 228.138 221.249 238.427L223.251 242.019L230.118 254.376C234.254 261.803 238.523 269.487 242.674 277.067L252.286 294.65C253.375 296.677 254.467 298.701 255.561 300.722C256.555 302.636 257.6 304.579 258.652 306.537Z" fill="#F34414"/>
<path d="M280.607 291.169L276.118 286.127C274.646 284.444 273.149 282.761 271.628 281.078L258.38 266.035C252.683 259.558 246.943 252.926 241.386 246.516C238.285 242.939 235.184 239.367 232.083 235.8L229.33 232.576C221.654 223.685 213.712 214.5 205.984 205.381L203.136 202.047C199.839 198.124 196.424 194.069 193.148 190.021L186.797 182.27C184.692 179.768 182.727 177.244 181.718 173.924L182.292 173.446C185.384 175.013 187.525 177.391 189.652 179.886L196.188 187.489C199.596 191.419 202.989 195.474 206.271 199.39L209.112 202.79C216.73 211.953 224.384 221.352 231.788 230.434L234.512 233.776C237.485 237.456 240.466 241.136 243.454 244.816C248.797 251.403 254.325 258.211 259.72 264.938L272.232 280.585L276.5 285.995C277.855 287.688 279.231 289.417 280.607 291.169Z" fill="#F34414"/>
<path d="M299.552 272.217L294.4 268.14L288.961 263.841L273.313 251.329C266.579 245.942 259.771 240.407 253.184 235.056C249.509 232.073 245.829 229.095 242.144 226.121L238.986 223.545C229.838 216.097 220.38 208.391 211.151 200.729L207.743 197.866C203.828 194.591 199.78 191.205 195.857 187.798L188.261 181.269C185.752 179.172 183.382 177.03 181.814 173.909L182.292 173.343C185.612 174.344 188.129 176.287 190.631 178.414L198.381 184.765C202.437 188.048 206.477 191.463 210.415 194.76L213.771 197.587C222.912 205.337 232.171 213.3 241.055 221.013L244.161 223.693L254.833 232.951C261.258 238.523 267.904 244.278 274.403 249.99L289.447 263.238C291.154 264.769 292.871 266.295 294.599 267.816L299.552 272.217Z" fill="#F34414"/>
<path d="M314.927 250.24L309.039 247.082L303.004 243.829L285.428 234.217C277.869 230.081 270.215 225.827 262.811 221.705C258.669 219.404 254.523 217.103 250.372 214.801L246.611 212.704C236.388 207 225.812 201.097 215.471 195.194L211.6 192.986C207.184 190.44 202.613 187.834 198.168 185.141L189.549 180.033C186.716 178.399 184.007 176.699 181.924 173.924L182.292 173.284C185.737 173.696 188.563 175.19 191.389 176.824L200.126 181.733C204.674 184.257 209.237 186.885 213.661 189.461L217.51 191.669C227.814 197.697 238.28 203.931 248.378 209.959L251.969 212.1C256.022 214.554 260.083 216.987 264.15 219.401C271.422 223.759 278.944 228.233 286.319 232.745L303.431 243.167L309.245 246.759L314.927 250.24Z" fill="#F34414"/>
<path d="M326.254 225.952L319.976 223.876L313.426 221.668L294.444 215.258C286.289 212.498 278.009 209.635 270.009 206.867L256.555 202.216L252.544 200.928C241.452 197.071 229.985 193.089 218.746 189.056L214.566 187.54C209.767 185.803 204.799 184 199.949 182.145L190.58 178.605C187.503 177.486 184.537 176.286 182.013 173.916L182.263 173.217H183.131C186.267 173.217 189.019 174.13 191.838 175.153L201.296 178.465C206.22 180.165 211.188 181.983 216.016 183.742L220.16 185.251C231.42 189.365 242.88 193.715 253.92 197.917L257.644 199.338L270.848 204.387C278.789 207.427 287.003 210.562 295.055 213.705L313.72 220.991C315.847 221.845 317.974 222.684 320.108 223.53L326.254 225.952Z" fill="#F34414"/>
<path d="M333.18 200.096L326.607 199.14C324.348 198.801 322.081 198.47 319.821 198.146L300.016 195.128C291.471 193.818 282.793 192.435 274.41 191.088L260.426 188.88L256.444 188.24C244.786 186.355 232.723 184.412 220.888 182.352L216.538 181.616C211.497 180.732 206.286 179.82 201.178 178.826L191.36 176.964C188.144 176.397 185.016 175.728 182.108 173.836L182.241 173.1C183.506 172.809 184.8 172.666 186.098 172.673C188.075 172.721 190.045 172.938 191.986 173.321L201.877 174.947C207.029 175.764 212.218 176.692 217.252 177.582L221.61 178.355C233.386 180.497 245.382 182.771 256.938 184.979L260.963 185.715C265.6 186.618 270.24 187.516 274.881 188.409C283.213 190.013 291.809 191.677 300.295 193.369L319.946 197.307L326.696 198.705L333.18 200.096Z" fill="#F34414"/>
<path d="M213.131 175.448C209.811 175.448 205.866 175.448 201.833 175.367L191.816 175.256C188.534 175.256 185.347 175.138 182.16 173.784V173.048C185.347 171.687 188.526 171.576 191.779 171.576L201.833 171.458C205.874 171.392 209.819 171.377 213.153 171.377H221.86C233.805 171.436 245.956 171.613 257.703 171.782L261.92 171.841C266.65 171.929 271.38 172.008 276.11 172.077C284.589 172.209 293.362 172.349 301.988 172.548L322.022 173.019L328.874 173.217L335.498 173.409L328.874 173.608C326.585 173.674 324.304 173.733 322.022 173.806L301.988 174.27C293.362 174.469 284.589 174.608 276.11 174.748C271.38 174.822 266.65 174.9 261.92 174.984L257.85 175.043C246.074 175.212 233.857 175.389 221.86 175.448H213.131Z" fill="#F34414"/>
<path d="M186.076 174.13C184.778 174.138 183.484 173.994 182.219 173.703L182.086 172.967C184.994 171.069 188.122 170.399 191.338 169.832L201.186 167.977C206.286 166.991 211.49 166.078 216.524 165.203L220.896 164.43C232.709 162.413 244.742 160.47 256.386 158.593L260.434 157.938C265.105 157.202 269.766 156.466 274.418 155.73C282.786 154.391 291.449 153.007 299.979 151.704L319.785 148.687L326.593 147.693L333.143 146.729L326.622 148.083C324.414 148.54 322.155 148.996 319.924 149.467L300.288 153.382C291.839 155.068 283.235 156.731 274.918 158.336L260.934 161.037L256.908 161.773C245.331 163.981 233.356 166.285 221.58 168.397L217.164 169.17C212.145 170.068 206.949 170.988 201.826 171.805L191.941 173.424C190.01 173.828 188.048 174.065 186.076 174.13Z" fill="#F34414"/>
<path d="M183.131 173.652H182.263L182.013 172.953C184.537 170.575 187.503 169.376 190.572 168.264L199.949 164.724C204.799 162.862 209.767 161.044 214.573 159.322L218.746 157.806C230 153.772 241.489 149.783 252.602 145.919L256.555 144.543C261.044 143.007 265.532 141.459 270.016 139.899C278.017 137.131 286.289 134.268 294.444 131.508L313.433 125.09L319.932 122.941L326.247 120.851L320.086 123.295L313.698 125.834L295.033 133.128C286.988 136.263 278.797 139.398 270.863 142.423L257.615 147.494L253.824 148.966C242.784 153.161 231.384 157.504 220.123 161.662L215.964 163.186C211.166 164.937 206.198 166.755 201.281 168.448L191.824 171.768C189.034 172.732 186.267 173.652 183.131 173.652Z" fill="#F34414"/>
<path d="M181.924 172.901C184.007 170.119 186.716 168.426 189.542 166.792L198.16 161.684C202.628 158.998 207.221 156.356 211.666 153.802L215.471 151.594C225.849 145.669 236.462 139.744 246.729 134.018L250.409 131.965C254.545 129.678 258.677 127.384 262.803 125.083C270.222 120.954 277.891 116.685 285.465 112.571L303.048 102.959C305.05 101.884 307.049 100.807 309.046 99.7278L314.934 96.5557L309.216 100.096L303.431 103.665L286.304 114.08C278.944 118.577 271.378 123.088 264.084 127.453L251.969 134.688L248.473 136.778C238.346 142.821 227.865 149.077 217.51 155.127L213.675 157.335C209.259 159.903 204.674 162.553 200.133 165.07L191.397 170.016C188.563 171.65 185.737 173.151 182.292 173.563L181.924 172.901Z" fill="#F34414"/>
<path d="M181.836 172.886C183.404 169.788 185.774 167.646 188.276 165.526L195.879 158.998C199.802 155.59 203.85 152.205 207.765 148.922L211.18 146.067C220.388 138.42 229.823 130.728 238.957 123.251L242.144 120.704L253.184 111.747C259.764 106.404 266.572 100.876 273.299 95.4887L288.946 82.9767L294.356 78.7079C296.056 77.3537 297.793 75.9847 299.508 74.6084L294.54 79.0244L289.425 83.5876L274.381 96.8356C267.889 102.532 261.251 108.288 254.84 113.845C251.268 116.936 247.701 120.032 244.139 123.133L241.04 125.805C232.12 133.518 222.898 141.489 213.749 149.239L210.356 152.094C206.448 155.384 202.4 158.785 198.367 162.06L190.617 168.412C188.114 170.509 185.59 172.474 182.27 173.483L181.836 172.886Z" fill="#F34414"/>
<path d="M181.74 172.886C182.749 169.567 184.684 167.043 186.812 164.54L193.163 156.768C196.446 152.72 199.861 148.672 203.158 144.742L205.984 141.378C213.712 132.267 221.654 123.074 229.33 114.191L232.098 110.989C235.204 107.417 238.305 103.842 241.401 100.265C246.957 93.8548 252.698 87.2308 258.395 80.754L271.643 65.7028C273.149 64.0198 274.653 62.3295 276.155 60.6318L280.622 55.6196L276.53 60.7716L272.232 66.2401L259.72 81.8801C254.332 88.6145 248.805 95.4151 243.461 101.995C240.473 105.665 237.49 109.345 234.512 113.035L231.803 116.354C224.399 125.451 216.737 134.85 209.112 144.028L206.271 147.421C202.989 151.344 199.596 155.399 196.188 159.322L189.66 166.925C187.555 169.427 185.413 171.805 182.3 173.365L181.74 172.886Z" fill="#F34414"/>
<path d="M181.652 172.901C182.064 169.457 183.566 166.63 185.2 163.804L190.109 155.068C192.618 150.534 195.261 145.978 197.815 141.57L200.059 137.684C206.102 127.38 212.351 116.877 218.386 106.772L220.498 103.231C222.952 99.1785 225.383 95.1231 227.792 91.0653C232.156 83.7862 236.661 76.257 241.143 68.8896L251.565 51.7629C252.757 49.8419 253.949 47.9062 255.134 45.9779C256.319 44.0496 257.467 42.1875 258.652 40.2739L255.517 46.0957C254.428 48.1123 253.309 50.1363 252.249 52.1603L242.637 69.7434C238.486 77.3242 234.21 85.008 230.081 92.4416C227.785 96.5583 225.496 100.675 223.214 104.792L221.219 108.369C215.471 118.673 209.532 129.315 203.555 139.722L201.347 143.557C198.794 147.973 196.159 152.573 193.48 157.033L188.328 165.652C186.701 168.478 185.001 171.194 182.226 173.269L181.652 172.901Z" fill="#F34414"/>
<path d="M181.571 172.96C181.38 169.493 182.366 166.454 183.477 163.392L186.797 153.942C188.489 149.025 190.307 144.064 192.059 139.266L193.568 135.056C197.719 123.817 202.054 112.424 206.249 101.406L207.721 97.5713C209.424 93.1553 211.117 88.7393 212.8 84.3233C215.832 76.4039 218.96 68.2196 222.088 60.1825L229.382 41.5175C230.235 39.3905 231.074 37.2561 231.921 35.1291C232.767 33.002 233.54 31.0369 234.372 28.9688L232.267 35.3057L230.125 41.7899L223.744 60.7492C220.984 68.9041 218.121 77.1841 215.353 85.1844C213.798 89.6691 212.248 94.1563 210.702 98.6459L209.326 102.613C205.462 113.719 201.472 125.201 197.439 136.469L195.967 140.591C194.223 145.411 192.412 150.394 190.543 155.266L186.944 164.621C185.825 167.69 184.625 170.656 182.248 173.188L181.571 172.96Z" fill="#F34414"/>
<path d="M181.49 172.96C180.703 169.582 181.144 166.417 181.711 163.2L183.338 153.316C184.155 148.164 185.082 142.946 185.98 137.904L186.716 133.576C188.85 121.8 191.132 109.877 193.34 98.3368L194.135 94.2004C195.042 89.5342 195.945 84.8729 196.843 80.2164C198.448 71.9144 200.096 63.3326 201.782 54.9054L205.727 35.2542L207.118 28.5051C207.559 26.3707 208.001 24.2068 208.457 22.0356C208.133 24.2436 207.81 26.4958 207.486 28.6596C207.162 30.8235 206.823 33.1345 206.5 35.372L203.511 55.1998C202.209 63.7521 200.818 72.4369 199.471 80.8347C198.73 85.4862 197.994 90.1353 197.263 94.7819L196.593 98.9108C194.716 110.525 192.781 122.529 190.764 134.312L190.028 138.64C189.145 143.689 188.232 148.944 187.238 154.023L185.384 163.87C184.817 167.087 184.147 170.215 182.248 173.122L181.49 172.96Z" fill="#F34414"/>
</g>
<path d="M83.4772 48.061L87.6282 51.2405L92.6109 49.6213C92.7248 49.584 92.8469 49.5794 92.9632 49.608C93.0796 49.6366 93.1856 49.6974 93.2692 49.7832C93.3528 49.8691 93.4106 49.9767 93.436 50.0938C93.4615 50.2109 93.4536 50.3328 93.4132 50.4457L91.6688 55.3769L94.7527 59.6162C94.8228 59.7131 94.8645 59.8277 94.8729 59.947C94.8812 60.0663 94.856 60.1855 94.8001 60.2913C94.7442 60.397 94.6598 60.4849 94.5564 60.5451C94.4531 60.6053 94.3349 60.6354 94.2154 60.6319L88.9824 60.4994L85.906 64.7682C85.8355 64.8653 85.7392 64.9406 85.628 64.9856C85.5169 65.0306 85.3953 65.0435 85.2772 65.0228C85.1591 65.0021 85.0491 64.9486 84.9599 64.8685C84.8707 64.7883 84.8057 64.6847 84.7725 64.5695L83.3005 59.5573L78.3178 57.9381C78.2046 57.9013 78.1039 57.8337 78.027 57.7428C77.9501 57.652 77.9001 57.5415 77.8825 57.4238C77.8649 57.3061 77.8805 57.1858 77.9275 57.0764C77.9745 56.9671 78.051 56.873 78.1485 56.8047L82.4615 53.8607V48.5762C82.4621 48.4585 82.4952 48.3433 82.5571 48.2432C82.6189 48.1431 82.7072 48.062 82.8121 48.0087C82.9171 47.9555 83.0347 47.9322 83.152 47.9414C83.2693 47.9507 83.3818 47.992 83.4772 48.061Z" fill="#E0E0E0"/>
<path d="M280.026 198.279L279.761 203.504L283.912 206.691C284.007 206.764 284.079 206.861 284.122 206.973C284.164 207.085 284.174 207.206 284.151 207.323C284.128 207.44 284.073 207.548 283.992 207.636C283.91 207.723 283.806 207.786 283.691 207.817L278.628 209.179L276.883 214.11C276.844 214.223 276.774 214.323 276.681 214.398C276.588 214.473 276.475 214.521 276.356 214.535C276.238 214.55 276.117 214.531 276.009 214.48C275.9 214.43 275.808 214.35 275.742 214.25L272.887 209.834L267.654 209.694C267.534 209.693 267.418 209.657 267.317 209.592C267.217 209.527 267.137 209.435 267.087 209.326C267.037 209.218 267.019 209.097 267.034 208.978C267.05 208.86 267.099 208.748 267.175 208.656L270.465 204.586L268.993 199.567C268.959 199.452 268.958 199.329 268.989 199.214C269.021 199.098 269.085 198.993 269.173 198.912C269.261 198.831 269.37 198.776 269.488 198.754C269.606 198.732 269.728 198.743 269.84 198.787L274.727 200.663L279.04 197.719C279.138 197.656 279.252 197.621 279.368 197.618C279.485 197.615 279.6 197.643 279.702 197.701C279.803 197.759 279.887 197.843 279.944 197.945C280.002 198.047 280.03 198.162 280.026 198.279Z" fill="#E0E0E0"/>
<path d="M283.949 68.787L283.684 74.0126L287.835 77.1994C287.93 77.272 288.002 77.3696 288.044 77.4811C288.087 77.5927 288.097 77.7139 288.074 77.831C288.051 77.9481 287.996 78.0564 287.915 78.1438C287.833 78.2312 287.729 78.2941 287.614 78.3255L282.558 79.6871L280.806 84.6183C280.767 84.7313 280.697 84.8311 280.603 84.9062C280.51 84.9814 280.398 85.0289 280.279 85.0435C280.161 85.058 280.04 85.039 279.932 84.9886C279.823 84.9382 279.731 84.8583 279.665 84.7582L276.81 80.3422L271.584 80.2244C271.464 80.2229 271.348 80.1875 271.248 80.1224C271.147 80.0573 271.067 79.9651 271.017 79.8565C270.967 79.7479 270.949 79.6273 270.965 79.5088C270.98 79.3903 271.029 79.2785 271.106 79.1866L274.396 75.1166L272.924 70.097C272.889 69.9821 272.888 69.8598 272.919 69.744C272.951 69.6283 273.015 69.5238 273.103 69.4425C273.191 69.3611 273.301 69.3062 273.418 69.284C273.536 69.2618 273.658 69.2732 273.77 69.3169L278.657 71.1937L282.97 68.2497C283.066 68.1896 283.177 68.1562 283.291 68.1531C283.405 68.1499 283.517 68.1771 283.617 68.2318C283.716 68.2865 283.8 68.3668 283.858 68.4644C283.916 68.5619 283.948 68.6733 283.949 68.787Z" fill="#E0E0E0"/>
<path d="M41.5104 258.903L46.5005 260.493L50.6368 257.277C50.7312 257.204 50.8438 257.159 50.9621 257.147C51.0804 257.135 51.1997 257.156 51.3067 257.208C51.4137 257.26 51.5041 257.341 51.5678 257.442C51.6315 257.542 51.6659 257.658 51.6672 257.777V263.017L56.0023 265.961C56.1001 266.029 56.1773 266.122 56.2253 266.23C56.2733 266.339 56.2903 266.458 56.2742 266.576C56.2582 266.693 56.2098 266.804 56.1345 266.896C56.0592 266.987 55.9599 267.056 55.8477 267.095L50.8797 268.751L49.4077 273.778C49.3745 273.893 49.3096 273.997 49.2203 274.077C49.1311 274.157 49.0212 274.21 48.9031 274.231C48.7849 274.252 48.6634 274.239 48.5522 274.194C48.441 274.149 48.3447 274.073 48.2743 273.976L45.1684 269.767L39.9354 269.936C39.8159 269.939 39.6977 269.909 39.5944 269.849C39.491 269.789 39.4066 269.701 39.3507 269.595C39.2948 269.489 39.2696 269.37 39.2779 269.251C39.2863 269.132 39.328 269.017 39.3981 268.92L42.4452 264.666L40.664 259.742C40.6171 259.624 40.6059 259.495 40.6319 259.371C40.6578 259.246 40.7197 259.132 40.8099 259.043C40.9001 258.954 41.0146 258.893 41.1392 258.868C41.2637 258.843 41.3928 258.855 41.5104 258.903Z" fill="#E0E0E0"/>
<path d="M315.177 316.546L320.175 318.129L324.304 314.912C324.398 314.84 324.511 314.795 324.629 314.783C324.747 314.771 324.867 314.792 324.974 314.844C325.081 314.896 325.171 314.977 325.235 315.077C325.298 315.178 325.333 315.294 325.334 315.413L325.371 320.653L329.706 323.597C329.806 323.663 329.886 323.755 329.936 323.864C329.986 323.973 330.003 324.094 329.987 324.213C329.971 324.331 329.921 324.443 329.844 324.535C329.767 324.626 329.666 324.694 329.551 324.731L324.576 326.379L323.104 331.406C323.072 331.522 323.008 331.626 322.919 331.707C322.83 331.788 322.72 331.842 322.602 331.864C322.484 331.885 322.362 331.873 322.25 331.829C322.138 331.784 322.042 331.709 321.971 331.612L318.865 327.395L313.632 327.564C313.513 327.567 313.397 327.536 313.295 327.476C313.192 327.417 313.109 327.33 313.053 327.225C312.998 327.121 312.972 327.003 312.979 326.885C312.987 326.767 313.026 326.653 313.094 326.556L316.141 322.294L314.36 317.371C314.318 317.256 314.31 317.132 314.335 317.013C314.361 316.894 314.421 316.785 314.506 316.698C314.592 316.612 314.701 316.551 314.82 316.524C314.939 316.498 315.063 316.505 315.177 316.546Z" fill="#E0E0E0"/>
<path d="M185.928 317.003L185.656 322.228L189.807 325.415C189.902 325.488 189.974 325.585 190.017 325.697C190.059 325.809 190.069 325.93 190.046 326.047C190.023 326.164 189.968 326.272 189.887 326.36C189.806 326.447 189.702 326.51 189.586 326.541L184.53 327.903L182.778 332.834C182.739 332.947 182.669 333.047 182.576 333.122C182.483 333.197 182.37 333.245 182.252 333.259C182.133 333.274 182.012 333.255 181.904 333.204C181.795 333.154 181.703 333.074 181.638 332.974L178.789 328.558L173.556 328.418C173.437 328.415 173.322 328.379 173.222 328.314C173.122 328.249 173.043 328.157 172.993 328.05C172.942 327.942 172.923 327.822 172.936 327.704C172.95 327.586 172.997 327.474 173.071 327.38L176.368 323.31L174.896 318.291C174.862 318.177 174.861 318.055 174.893 317.941C174.924 317.826 174.987 317.722 175.074 317.641C175.161 317.56 175.269 317.505 175.386 317.482C175.503 317.459 175.623 317.469 175.735 317.511L180.622 319.387L184.942 316.443C185.04 316.38 185.154 316.345 185.271 316.342C185.387 316.339 185.503 316.368 185.604 316.425C185.706 316.483 185.79 316.567 185.847 316.669C185.904 316.771 185.932 316.886 185.928 317.003Z" fill="#E0E0E0"/>
<path d="M52.6977 162.568C52.6977 162.886 52.6034 163.196 52.4268 163.46C52.2502 163.724 51.9992 163.93 51.7055 164.051C51.4119 164.172 51.089 164.203 50.7775 164.141C50.4661 164.078 50.1802 163.925 49.9561 163.7C49.732 163.475 49.5798 163.188 49.5187 162.876C49.4576 162.565 49.4905 162.242 49.613 161.949C49.7356 161.656 49.9424 161.406 50.2072 161.23C50.472 161.055 50.783 160.962 51.1006 160.963C51.311 160.963 51.5193 161.005 51.7135 161.086C51.9078 161.166 52.0842 161.285 52.2326 161.434C52.381 161.583 52.4984 161.76 52.5783 161.954C52.6581 162.149 52.6987 162.358 52.6977 162.568Z" fill="#E0E0E0"/>
<path d="M31.258 110.687C32.1401 110.687 32.8551 109.972 32.8551 109.09C32.8551 108.208 32.1401 107.493 31.258 107.493C30.3759 107.493 29.6609 108.208 29.6609 109.09C29.6609 109.972 30.3759 110.687 31.258 110.687Z" fill="#E0E0E0"/>
<path d="M132.966 245.743C132.966 246.059 132.872 246.368 132.697 246.63C132.521 246.893 132.272 247.098 131.98 247.219C131.688 247.34 131.367 247.371 131.057 247.31C130.747 247.248 130.463 247.096 130.239 246.872C130.016 246.649 129.864 246.365 129.802 246.055C129.741 245.745 129.772 245.424 129.893 245.132C130.014 244.84 130.219 244.591 130.481 244.415C130.744 244.24 131.053 244.146 131.369 244.146C131.578 244.146 131.786 244.187 131.98 244.268C132.174 244.348 132.35 244.465 132.498 244.614C132.646 244.762 132.764 244.938 132.844 245.132C132.924 245.326 132.966 245.533 132.966 245.743Z" fill="#E0E0E0"/>
<path d="M242.291 301.51C242.291 301.826 242.198 302.135 242.022 302.398C241.847 302.66 241.597 302.865 241.305 302.986C241.014 303.107 240.693 303.138 240.383 303.077C240.073 303.015 239.788 302.863 239.565 302.64C239.342 302.416 239.189 302.132 239.128 301.822C239.066 301.512 239.098 301.191 239.219 300.899C239.34 300.607 239.544 300.358 239.807 300.182C240.07 300.007 240.378 299.913 240.694 299.913C240.904 299.913 241.112 299.954 241.305 300.035C241.499 300.115 241.675 300.233 241.824 300.381C241.972 300.529 242.09 300.705 242.17 300.899C242.25 301.093 242.291 301.3 242.291 301.51Z" fill="#E0E0E0"/>
<path d="M336.978 159.02C337.86 159.02 338.575 158.305 338.575 157.423C338.575 156.541 337.86 155.826 336.978 155.826C336.096 155.826 335.381 156.541 335.381 157.423C335.381 158.305 336.096 159.02 336.978 159.02Z" fill="#E0E0E0"/>
<path d="M324.473 87.371C325.355 87.371 326.07 86.6559 326.07 85.7739C326.07 84.8918 325.355 84.1768 324.473 84.1768C323.591 84.1768 322.876 84.8918 322.876 85.7739C322.876 86.6559 323.591 87.371 324.473 87.371Z" fill="#E0E0E0"/>
<path d="M216.046 57.8496C216.046 58.1669 215.952 58.4771 215.775 58.741C215.599 59.0049 215.348 59.2105 215.055 59.3319C214.762 59.4534 214.439 59.4852 214.128 59.4233C213.817 59.3613 213.531 59.2085 213.307 58.9841C213.082 58.7597 212.929 58.4739 212.868 58.1626C212.806 57.8514 212.837 57.5288 212.959 57.2356C213.08 56.9424 213.286 56.6918 213.55 56.5155C213.814 56.3392 214.124 56.2451 214.441 56.2451C214.652 56.2451 214.86 56.2866 215.055 56.3673C215.25 56.4479 215.427 56.5661 215.576 56.7151C215.725 56.8641 215.843 57.0409 215.923 57.2356C216.004 57.4303 216.046 57.6389 216.046 57.8496Z" fill="#E0E0E0"/>
<path d="M130.316 59.7411C131.198 59.7411 131.913 59.0261 131.913 58.144C131.913 57.2619 131.198 56.5469 130.316 56.5469C129.434 56.5469 128.719 57.2619 128.719 58.144C128.719 59.0261 129.434 59.7411 130.316 59.7411Z" fill="#E0E0E0"/>
<path d="M266.373 155.296L290.367 133.665L293.561 130.471L317.26 104.512L317.643 104.093C318.533 103.209 319.998 102.908 321.845 103.401C325.525 104.394 329.338 108.2 330.324 111.894C330.825 113.749 330.523 115.214 329.632 116.104L303.232 140.157L300.052 143.336L278.208 167.418C277.317 168.272 275.853 168.566 274.035 168.073C270.355 167.08 266.55 163.282 265.549 159.58C265.063 157.732 265.365 156.26 266.285 155.377L266.41 155.252L266.373 155.296Z" fill="#F34414"/>
<path opacity="0.4" d="M266.373 155.296L290.367 133.665L293.561 130.471L317.26 104.512L317.643 104.093C318.533 103.209 319.998 102.908 321.845 103.401C325.525 104.394 329.338 108.2 330.324 111.894C330.825 113.749 330.523 115.214 329.632 116.104L303.232 140.157L300.052 143.336L278.208 167.418C277.317 168.272 275.853 168.566 274.035 168.073C270.355 167.08 266.55 163.282 265.549 159.58C265.063 157.732 265.365 156.26 266.285 155.377L266.41 155.252L266.373 155.296Z" fill="white"/>
<path opacity="0.3" d="M318.497 103.511C318.179 103.652 317.89 103.849 317.643 104.093L317.26 104.512L293.561 130.464L290.367 133.658L266.373 155.296L266.248 155.421C265.357 156.305 265.056 157.777 265.512 159.624C266.41 162.406 268.204 164.812 270.612 166.469L320.947 116.222C320.947 116.222 315.876 109.377 318.497 103.511Z" fill="#F34414"/>
<path d="M321.845 103.401C319.998 102.908 318.526 103.209 317.643 104.093C316.76 104.976 316.451 106.448 316.944 108.303C317.93 111.983 321.728 115.802 325.422 116.796C327.277 117.289 328.749 116.987 329.632 116.104C330.515 115.221 330.825 113.742 330.332 111.894C329.338 108.192 325.548 104.394 321.845 103.401Z" fill="#F34414"/>
<path d="M265.968 155.679L266.366 155.281L290.359 133.65L293.554 130.456L317.26 104.512C313.749 108.759 318.372 115.346 318.372 115.346L266.697 166.94C266.697 166.94 261.751 159.889 265.968 155.679Z" fill="#F34414"/>
<path opacity="0.6" d="M265.968 155.679L266.366 155.281L290.359 133.65L293.554 130.456L317.26 104.512C313.749 108.759 318.372 115.346 318.372 115.346L266.697 166.94C266.697 166.94 261.751 159.889 265.968 155.679Z" fill="white"/>
<path opacity="0.25" d="M321.845 103.401C319.998 102.908 318.526 103.209 317.643 104.093C316.76 104.976 316.451 106.448 316.944 108.303C317.93 111.983 321.728 115.802 325.422 116.796C327.277 117.289 328.749 116.987 329.632 116.104C330.515 115.221 330.825 113.742 330.332 111.894C329.338 108.192 325.548 104.394 321.845 103.401Z" fill="white"/>
<path opacity="0.5" d="M325.01 111.673C329.043 112.498 327.954 107.486 323.943 104.255C323.278 103.895 322.574 103.611 321.845 103.408C319.998 102.915 318.526 103.217 317.643 104.1C316.76 104.983 316.451 106.455 316.944 108.31C317.798 110.974 319.482 113.295 321.75 114.934L325.01 111.673Z" fill="#F34414"/>
<path d="M327.071 111.35L322.788 115.633C322.424 115.414 322.077 115.168 321.75 114.897L325.01 111.644C325.355 111.745 325.717 111.771 326.072 111.72C326.428 111.669 326.768 111.543 327.071 111.35Z" fill="#F34414"/>
<path opacity="0.1" d="M327.071 111.35L322.788 115.633C322.424 115.414 322.077 115.168 321.75 114.897L325.01 111.644C325.355 111.745 325.717 111.771 326.072 111.72C326.428 111.669 326.768 111.543 327.071 111.35Z" fill="black"/>
<path d="M300.369 143.035C305.587 145.338 309.539 149.747 312.734 155.421C312.963 153.726 312.883 152.003 312.498 150.336C313.879 150.603 315.218 151.054 316.48 151.675C313.161 146.42 309.164 142.151 304.167 139.34L303.232 140.157L300.369 143.035Z" fill="#F34414"/>
<path opacity="0.2" d="M302.651 144.256L303.475 142.6L306.08 140.547C305.455 140.135 304.822 139.737 304.167 139.369L303.232 140.157L300.354 143.034C301.146 143.391 301.913 143.799 302.651 144.256Z" fill="black"/>
<path d="M290.367 133.658C289.668 134.394 289.432 135.557 289.822 137.036C290.346 138.636 291.24 140.09 292.43 141.28C293.621 142.47 295.074 143.364 296.674 143.888C298.146 144.285 299.309 144.057 300.03 143.373L300.067 143.336L303.247 140.156C302.511 140.892 301.341 141.113 299.854 140.716C298.253 140.192 296.798 139.297 295.608 138.105C294.417 136.914 293.524 135.458 293.002 133.856C292.604 132.384 292.847 131.177 293.568 130.463L290.389 133.636L290.367 133.658Z" fill="#F34414"/>
<path opacity="0.15" d="M294.915 137.345C294.272 136.583 293.742 135.733 293.34 134.821L290.161 137.993C290.562 138.905 291.093 139.755 291.736 140.517L294.915 137.345ZM289.822 137.036L293.002 133.864C292.877 133.401 292.815 132.923 292.818 132.443L289.638 135.616C289.636 136.095 289.698 136.573 289.822 137.036Z" fill="white"/>
<path opacity="0.1" d="M294.525 142.939C295.192 143.356 295.916 143.676 296.674 143.888C298.146 144.286 299.309 144.057 300.03 143.373L300.067 143.336L303.247 140.157C302.511 140.893 301.34 141.113 299.854 140.716C299.096 140.504 298.372 140.184 297.705 139.767L294.525 142.939Z" fill="black"/>
<path d="M39.9281 177.303L69.817 194.128L74.1079 196.255L108.244 211.321L108.796 211.571C109.988 212.167 110.783 213.544 110.915 215.568C111.165 219.623 108.626 224.731 105.233 226.976C103.541 228.102 101.958 228.293 100.773 227.712L67.6532 209.312L63.377 207.185L31.729 193.362H31.6848C30.522 192.752 29.7344 191.383 29.6093 189.381C29.3664 185.325 31.9057 180.225 35.2913 177.973C36.9841 176.854 38.5665 176.663 39.7588 177.237L39.9281 177.318V177.303Z" fill="#F34414"/>
<path opacity="0.4" d="M39.9281 177.303L69.817 194.128L74.1079 196.255L108.244 211.321L108.796 211.571C109.988 212.167 110.783 213.544 110.915 215.568C111.165 219.623 108.626 224.731 105.233 226.976C103.541 228.102 101.958 228.293 100.773 227.712L67.6532 209.312L63.377 207.185L31.729 193.362H31.6848C30.522 192.752 29.7344 191.383 29.6093 189.381C29.3664 185.325 31.9057 180.225 35.2913 177.973C36.9841 176.854 38.5665 176.663 39.7588 177.237L39.9281 177.318V177.303Z" fill="white"/>
<path opacity="0.3" d="M109.664 212.226C109.413 211.958 109.116 211.736 108.788 211.571L108.236 211.321L74.1004 196.255L69.8096 194.128L39.928 177.303L39.7587 177.222C38.5737 176.626 36.984 176.817 35.2912 177.958C32.7976 179.803 30.9858 182.422 30.1392 185.406L97.7334 219.056C97.7334 219.056 102.878 211.578 109.664 212.226Z" fill="#F34414"/>
<path d="M110.915 215.568C110.79 213.544 109.988 212.16 108.796 211.564C107.603 210.967 106.021 211.166 104.328 212.3C100.942 214.544 98.3959 219.66 98.6461 223.708C98.7786 225.732 99.5735 227.115 100.766 227.704C101.958 228.293 103.541 228.109 105.233 226.968C108.619 224.731 111.136 219.623 110.915 215.568Z" fill="#F34414"/>
<path d="M39.3981 177.023L39.9354 177.288L69.8243 194.113L74.1152 196.24L108.251 211.306C102.79 209.216 97.7261 216.097 97.7261 216.097L28.3213 181.564C28.3213 181.564 33.7382 174.204 39.3981 177.023Z" fill="#F34414"/>
<path opacity="0.6" d="M39.3981 177.023L39.9354 177.288L69.8243 194.113L74.1152 196.24L108.251 211.306C102.79 209.216 97.7261 216.097 97.7261 216.097L28.3213 181.564C28.3213 181.564 33.7382 174.204 39.3981 177.023Z" fill="white"/>
<path opacity="0.25" d="M110.915 215.568C110.79 213.544 109.988 212.16 108.796 211.564C107.603 210.967 106.021 211.166 104.328 212.3C100.942 214.544 98.3959 219.66 98.6461 223.708C98.7786 225.732 99.5735 227.115 100.766 227.704C101.958 228.293 103.541 228.109 105.233 226.968C108.619 224.731 111.136 219.623 110.915 215.568Z" fill="white"/>
<path opacity="0.5" d="M103.658 221.536C104.195 225.879 108.876 223.089 110.768 217.952C110.907 217.163 110.957 216.361 110.915 215.56C110.79 213.536 109.988 212.152 108.796 211.556C107.603 210.96 106.021 211.159 104.328 212.292C101.931 214.05 100.164 216.533 99.2864 219.373L103.658 221.536Z" fill="#F34414"/>
<path d="M104.681 223.516L98.9258 220.646C99.0157 220.213 99.1362 219.788 99.2864 219.373L103.658 221.544C103.677 221.927 103.778 222.301 103.955 222.641C104.132 222.982 104.379 223.28 104.681 223.516Z" fill="#F34414"/>
<path opacity="0.1" d="M104.681 223.516L98.9258 220.646C99.0157 220.213 99.1362 219.788 99.2864 219.373L103.658 221.544C103.677 221.927 103.778 222.301 103.955 222.641C104.132 222.982 104.379 223.28 104.681 223.516Z" fill="black"/>
<path d="M63.7671 207.361C63.2151 213.389 60.0871 218.865 55.4871 223.994C57.2699 223.652 58.9757 222.989 60.5213 222.037C60.724 223.519 60.724 225.022 60.5213 226.504C64.6797 221.352 67.6311 215.913 68.7645 209.929L67.6311 209.289L63.7671 207.361Z" fill="#F34414"/>
<path opacity="0.2" d="M63.3328 210.062L65.2832 210.327L68.2272 212.255C68.4332 211.519 68.6172 210.717 68.7644 209.929L67.631 209.289L63.767 207.361C63.6785 208.269 63.5335 209.171 63.3328 210.062Z" fill="black"/>
<path d="M69.8169 194.128C68.8601 193.664 67.6089 193.826 66.2326 194.724C64.7991 195.79 63.6373 197.18 62.8419 198.78C62.0464 200.38 61.6397 202.145 61.6547 203.931C61.7504 205.536 62.3907 206.64 63.3107 207.133H63.3549L67.631 209.267C66.6669 208.789 66.0265 207.67 65.9235 206.036C65.9081 204.249 66.3155 202.483 67.1124 200.883C67.9092 199.283 69.073 197.894 70.5088 196.829C71.8704 195.916 73.151 195.762 74.1152 196.24L69.8464 194.113L69.8169 194.128Z" fill="#F34414"/>
<path opacity="0.15" d="M67.6458 199.95C68.1916 199.043 68.8687 198.222 69.655 197.513L65.3862 195.386C64.5999 196.095 63.9228 196.916 63.377 197.823L67.6458 199.95ZM66.24 194.724L70.5088 196.851C70.9307 196.563 71.3917 196.338 71.8778 196.181L67.609 194.054C67.1231 194.211 66.6621 194.437 66.24 194.724Z" fill="white"/>
<path opacity="0.1" d="M61.8828 201.451C61.689 202.262 61.6122 203.098 61.6547 203.931C61.7504 205.535 62.3907 206.639 63.3107 207.133H63.3548L67.631 209.267C66.6668 208.789 66.0265 207.67 65.9235 206.036C65.881 205.203 65.9578 204.367 66.1516 203.556L61.8828 201.451Z" fill="black"/>
<path d="M173.438 234.364L197.645 251.785L201.156 254.038L229.198 270.347L229.654 270.62C230.626 271.245 231.178 272.511 231.126 274.3C230.928 276.215 230.28 278.056 229.237 279.673C228.193 281.291 226.783 282.64 225.12 283.61C223.545 284.42 222.176 284.434 221.19 283.809L194.326 264.673L190.837 262.421L164.849 247.428H164.812C163.863 246.788 163.34 245.522 163.399 243.785C163.603 241.872 164.252 240.033 165.295 238.416C166.338 236.799 167.746 235.449 169.405 234.475C170.98 233.672 172.349 233.658 173.343 234.283L173.475 234.372L173.438 234.364Z" fill="#F34414"/>
<path opacity="0.4" d="M173.438 234.364L197.645 251.785L201.156 254.038L229.198 270.347L229.654 270.62C230.626 271.245 231.178 272.511 231.126 274.3C230.928 276.215 230.28 278.056 229.237 279.673C228.193 281.291 226.783 282.64 225.12 283.61C223.545 284.42 222.176 284.434 221.19 283.809L194.326 264.673L190.837 262.421L164.849 247.428H164.812C163.863 246.788 163.34 245.522 163.399 243.785C163.603 241.872 164.252 240.033 165.295 238.416C166.338 236.799 167.746 235.449 169.405 234.475C170.98 233.672 172.349 233.658 173.343 234.283L173.475 234.372L173.438 234.364Z" fill="white"/>
<path opacity="0.3" d="M230.368 271.267C230.177 271.013 229.943 270.794 229.676 270.62L229.22 270.347L201.178 254.038L197.668 251.785L173.461 234.364L173.328 234.276C172.357 233.65 170.966 233.665 169.398 234.467C167.072 235.825 165.261 237.913 164.246 240.407L219.446 276C219.446 276 224.539 270.053 230.368 271.267Z" fill="#F34414"/>
<path d="M231.104 274.278C231.192 272.511 230.633 271.238 229.632 270.598C228.631 269.957 227.269 269.987 225.694 270.796C224.032 271.767 222.621 273.115 221.578 274.733C220.534 276.351 219.887 278.192 219.688 280.107C219.608 281.866 220.16 283.139 221.16 283.787C222.161 284.434 223.516 284.398 225.091 283.595C226.755 282.624 228.167 281.275 229.212 279.656C230.256 278.037 230.905 276.194 231.104 274.278Z" fill="#F34414"/>
<path d="M173.011 234.048L173.446 234.328L197.653 251.749L201.163 254.001L229.205 270.311C224.686 267.978 219.637 273.439 219.637 273.439L162.965 236.889C162.965 236.889 168.389 231.104 173.011 234.048Z" fill="#F34414"/>
<path opacity="0.6" d="M173.011 234.048L173.446 234.328L197.653 251.749L201.163 254.001L229.205 270.311C224.686 267.978 219.637 273.439 219.637 273.439L162.965 236.889C162.965 236.889 168.389 231.104 173.011 234.048Z" fill="white"/>
<path opacity="0.25" d="M231.104 274.278C231.192 272.511 230.633 271.238 229.632 270.598C228.631 269.957 227.269 269.987 225.694 270.796C224.032 271.767 222.621 273.115 221.578 274.733C220.534 276.351 219.887 278.192 219.688 280.107C219.608 281.866 220.16 283.139 221.16 283.787C222.161 284.434 223.516 284.398 225.091 283.595C226.755 282.624 228.167 281.275 229.212 279.656C230.256 278.037 230.905 276.194 231.104 274.278Z" fill="white"/>
<path opacity="0.5" d="M224.252 278.738C224.296 282.543 228.609 280.585 230.736 276.331C230.936 275.663 231.057 274.974 231.097 274.278C231.185 272.511 230.626 271.238 229.625 270.598C228.624 269.957 227.262 269.987 225.687 270.796C223.45 272.086 221.685 274.06 220.653 276.427L224.252 278.738Z" fill="#F34414"/>
<path d="M224.944 280.541L220.248 277.509C220.365 277.143 220.511 276.786 220.682 276.442L224.252 278.738C224.232 279.071 224.283 279.404 224.402 279.715C224.522 280.026 224.706 280.308 224.944 280.541Z" fill="#F34414"/>
<path opacity="0.1" d="M224.944 280.541L220.248 277.509C220.365 277.143 220.511 276.786 220.682 276.442L224.252 278.738C224.232 279.071 224.283 279.404 224.402 279.715C224.522 280.026 224.706 280.308 224.944 280.541Z" fill="black"/>
<path d="M191.139 262.642C190.087 267.794 186.878 272.21 182.381 276.213C183.955 276.09 185.494 275.681 186.922 275.006C186.953 276.305 186.81 277.602 186.495 278.863C190.58 274.844 193.656 270.406 195.217 265.343L194.297 264.673L191.139 262.642Z" fill="#F34414"/>
<path opacity="0.2" d="M190.506 264.96L192.162 265.379L194.525 267.33C194.782 266.682 195.01 266.034 195.216 265.372L194.296 264.702L191.139 262.671C190.981 263.448 190.769 264.212 190.506 264.96Z" fill="black"/>
<path d="M197.645 251.786C196.865 251.293 195.754 251.307 194.495 251.955C193.153 252.738 192.014 253.826 191.171 255.132C190.328 256.438 189.805 257.924 189.645 259.47C189.579 260.868 190.013 261.884 190.771 262.414H190.808L194.297 264.666C193.509 264.158 193.06 263.135 193.134 261.722C193.293 260.175 193.815 258.687 194.658 257.38C195.501 256.073 196.64 254.983 197.984 254.2C199.25 253.552 200.369 253.538 201.156 254.045L197.667 251.801L197.645 251.786Z" fill="#F34414"/>
<path opacity="0.15" d="M195.209 256.606C195.769 255.874 196.433 255.23 197.182 254.693L193.693 252.448C192.943 252.983 192.278 253.628 191.721 254.362L195.209 256.606ZM194.473 251.955L197.984 254.214C198.376 254.009 198.795 253.861 199.228 253.773L195.776 251.506C195.33 251.593 194.898 251.744 194.495 251.955H194.473Z" fill="white"/>
<path opacity="0.1" d="M190.087 257.35C189.84 258.032 189.691 258.745 189.645 259.469C189.579 260.868 190.013 261.883 190.771 262.413H190.808L194.297 264.665C193.509 264.158 193.06 263.135 193.134 261.721C193.174 260.995 193.32 260.278 193.568 259.594L190.087 257.35Z" fill="black"/>
<path d="M309.172 301.937C306.802 306.066 301.716 308.664 294.452 308.759C279.798 308.951 261.839 298.897 254.34 286.304C250.66 280.114 250.188 274.469 252.396 270.303C252.433 270.237 252.463 270.164 252.5 270.097L266.02 245.942C263.672 250.13 264.099 255.871 267.845 262.134C275.345 274.734 293.303 284.788 307.964 284.589C315.324 284.486 320.403 281.851 322.751 277.663L309.245 301.79C309.223 301.871 309.194 301.9 309.172 301.937Z" fill="#37474F"/>
<path d="M314.117 293.112C311.74 297.241 306.654 299.839 299.397 299.935C284.736 300.126 266.778 290.072 259.278 277.479C255.598 271.29 255.127 265.644 257.342 261.479C257.37 261.408 257.402 261.339 257.438 261.273L258.866 258.726C256.518 262.914 256.945 268.655 260.691 274.955C268.191 287.548 286.149 297.602 300.811 297.403C308.171 297.307 313.249 294.665 315.597 290.477L314.184 293.002L314.117 293.112Z" fill="#F34414"/>
<path opacity="0.2" d="M266.513 277.737C260.522 274.889 255.834 281.24 258.329 291.721C256.833 290.047 255.497 288.236 254.34 286.311C250.66 280.122 250.188 274.477 252.396 270.311C252.433 270.245 252.463 270.171 252.5 270.105L266.02 245.949C263.672 250.137 264.099 255.878 267.845 262.141C275.345 274.742 293.303 284.795 307.964 284.597C290.256 286.142 274.528 281.535 266.513 277.737Z" fill="black"/>
<path d="M322.753 277.71C327.816 268.665 319.22 254.224 303.554 245.454C287.887 236.684 271.083 236.906 266.019 245.951C260.956 254.995 269.552 269.437 285.219 278.207C300.885 286.977 317.69 286.754 322.753 277.71Z" fill="#263238"/>
<path d="M341.71 288.629L309.576 234.681L246.788 235.498L244.691 239.237L276.817 293.207L339.62 292.368L341.71 288.629Z" fill="#37474F"/>
<path opacity="0.2" d="M276.817 293.208L278.907 289.469L341.71 288.63L339.62 292.369L276.817 293.208Z" fill="white"/>
<path opacity="0.2" d="M278.907 289.469L340.415 289.359L339.62 292.369L341.71 288.63L278.907 289.469Z" fill="white"/>
<path d="M309.576 234.681L246.788 235.498L278.907 289.469L341.71 288.629L309.576 234.681Z" fill="#455A64"/>
<path d="M313.713 205.042C313.713 204.468 312.859 203.821 312.491 204.483C311.427 206.602 310.484 208.779 309.665 211.004C308.748 213.165 307.688 215.262 306.492 217.282C304.218 221.131 301.34 224.34 298.286 227.586C295.232 230.832 292.626 234.21 291.095 238.457C289.74 242.2 289.205 246.191 289.528 250.159C289.72 252.479 290.189 254.767 290.926 256.974C291.63 259.336 292.907 261.488 294.643 263.238C295.062 263.613 295.828 263.569 295.673 262.826C295.413 261.896 295.081 260.988 294.68 260.11C294.326 259.153 293.988 258.174 293.664 257.203C293.018 255.25 292.612 253.226 292.457 251.175C292.146 247.357 292.635 243.517 293.892 239.899C295.34 236.092 297.6 232.646 300.516 229.801C303.696 226.497 306.735 223.177 309.105 219.24C310.383 217.138 311.46 214.92 312.322 212.616C312.773 211.414 313.147 210.185 313.44 208.936C313.718 207.658 313.809 206.346 313.713 205.042Z" fill="#F34414"/>
<path d="M303.033 176.154C305.301 180.745 307.203 185.507 308.723 190.396C311.718 199.964 310.099 204.314 312.756 204.549C315.177 204.755 318.313 196.689 319.417 187.29C320.057 182.331 319.424 177.29 317.577 172.643C317.488 172.43 317.325 172.256 317.118 172.153C316.911 172.05 316.674 172.026 316.451 172.084C316.272 172.13 316.115 172.236 316.006 172.386C315.897 172.535 315.844 172.717 315.854 172.901C315.545 172.165 315.339 171.62 314.537 171.753C314.414 171.781 314.298 171.834 314.197 171.908C314.095 171.983 314.01 172.078 313.947 172.188C313.884 172.297 313.845 172.418 313.831 172.543C313.817 172.669 313.83 172.795 313.867 172.916C314.552 175.47 315.972 181.704 315.067 186.694C314.839 180.519 312.565 174.704 311.328 171.885C311.237 171.675 311.073 171.504 310.866 171.404C310.66 171.304 310.424 171.281 310.202 171.341C310.071 171.376 309.949 171.44 309.844 171.526C309.74 171.612 309.655 171.72 309.595 171.842C309.535 171.964 309.502 172.097 309.497 172.233C309.493 172.368 309.517 172.503 309.569 172.629C310.747 175.455 313.985 182.933 313.382 192.052C313.006 184.066 309.797 176.721 308.678 174.439C308.575 174.175 308.372 173.962 308.114 173.846C307.855 173.729 307.561 173.717 307.295 173.814C307.161 173.873 307.042 173.96 306.945 174.069C306.848 174.178 306.775 174.307 306.732 174.446C306.689 174.585 306.676 174.733 306.694 174.877C306.713 175.022 306.762 175.161 306.838 175.286C307.906 177.494 310.518 183.772 310.967 189.336C310.813 188.887 307.287 180.033 304.94 175.264C304.843 175.06 304.678 174.898 304.473 174.807C304.268 174.715 304.036 174.699 303.821 174.763L303.652 174.807C303.514 174.843 303.387 174.909 303.278 175C303.169 175.091 303.082 175.205 303.023 175.334C302.964 175.463 302.934 175.603 302.936 175.745C302.938 175.887 302.971 176.027 303.033 176.154ZM316.34 193.237C317.076 188.887 318.202 181.564 316.34 174.771C319.049 183.043 317.68 188.328 316.34 193.237Z" fill="#F34414"/>
<path d="M310.511 206.168C310.895 206.69 311.424 207.087 312.033 207.308C312.642 207.529 313.303 207.564 313.932 207.409C314.561 207.255 315.131 206.917 315.568 206.439C316.005 205.961 316.29 205.364 316.388 204.723C316.486 204.083 316.392 203.428 316.117 202.841C315.843 202.254 315.4 201.762 314.846 201.427C314.292 201.091 313.651 200.928 313.003 200.957C312.356 200.986 311.732 201.206 311.21 201.59C310.863 201.844 310.569 202.164 310.346 202.532C310.123 202.9 309.975 203.309 309.91 203.734C309.845 204.159 309.864 204.593 309.968 205.011C310.071 205.429 310.256 205.822 310.511 206.168Z" fill="#F34414"/>
<path opacity="0.2" d="M310.511 206.168C310.895 206.69 311.424 207.087 312.033 207.308C312.642 207.529 313.303 207.564 313.932 207.409C314.561 207.255 315.131 206.917 315.568 206.439C316.005 205.961 316.29 205.364 316.388 204.723C316.486 204.083 316.392 203.428 316.117 202.841C315.843 202.254 315.4 201.762 314.846 201.427C314.292 201.091 313.651 200.928 313.003 200.957C312.356 200.986 311.732 201.206 311.21 201.59C310.863 201.844 310.569 202.164 310.346 202.532C310.123 202.9 309.975 203.309 309.91 203.734C309.845 204.159 309.864 204.593 309.968 205.011C310.071 205.429 310.256 205.822 310.511 206.168Z" fill="black"/>
<path d="M290.845 259.749C291.049 259.45 291.329 259.211 291.657 259.057C291.984 258.903 292.347 258.839 292.707 258.873C293.716 258.913 294.701 259.19 295.582 259.683C296.463 260.175 297.216 260.868 297.778 261.707C297.995 261.997 298.13 262.339 298.17 262.699C298.21 263.058 298.154 263.422 298.007 263.753L297.344 264.96C297.138 265.258 296.857 265.497 296.528 265.651C296.2 265.805 295.836 265.869 295.475 265.836C294.468 265.794 293.484 265.515 292.605 265.023C291.725 264.531 290.974 263.838 290.411 263.002C290.194 262.711 290.058 262.367 290.018 262.006C289.977 261.645 290.035 261.28 290.183 260.949L290.845 259.749Z" fill="#263238"/>
<path d="M296.137 264.629C297.992 264.629 298.72 263.296 297.778 261.685C297.216 260.846 296.463 260.153 295.582 259.66C294.701 259.168 293.716 258.891 292.707 258.851C290.86 258.851 290.124 260.183 291.073 261.795C291.635 262.632 292.386 263.325 293.266 263.818C294.146 264.31 295.13 264.588 296.137 264.629Z" fill="#37474F"/>
<path d="M83.3666 316.48C84.765 321.036 89.1369 324.701 96.1951 326.416C110.444 329.875 130.191 324.076 140.311 313.47C145.279 308.266 146.994 302.864 145.772 298.308C145.772 298.235 145.772 298.154 145.721 298.087L137.926 271.584C139.281 276.191 137.58 281.689 132.524 286.996C122.404 297.602 102.657 303.394 88.4156 299.935C81.2911 298.205 76.8898 294.488 75.543 289.881L83.3225 316.421C83.3382 316.44 83.3529 316.46 83.3666 316.48Z" fill="#37474F"/>
<path d="M80.5257 306.802C81.9167 311.35 86.2886 315.016 93.3468 316.731C107.596 320.19 127.343 314.397 137.463 303.792C142.431 298.581 144.146 293.179 142.924 288.623C142.924 288.549 142.924 288.476 142.872 288.402L142.048 285.568C143.402 290.176 141.709 295.674 136.646 300.98C126.533 311.593 106.779 317.386 92.5372 313.926C85.4127 312.189 81.0188 308.48 79.6646 303.873L80.4815 306.647C80.4913 306.7 80.5061 306.752 80.5257 306.802Z" fill="#F34414"/>
<path opacity="0.2" d="M130.353 302.43C136.822 300.958 139.98 308.229 135.218 317.886C137.049 316.576 138.755 315.097 140.311 313.47C145.279 308.266 146.994 302.864 145.772 298.308C145.772 298.235 145.772 298.154 145.72 298.087L137.926 271.584C139.28 276.191 137.58 281.689 132.524 286.996C122.404 297.602 102.657 303.394 88.4155 299.935C105.329 305.322 121.727 304.343 130.353 302.43Z" fill="black"/>
<path d="M112.015 298.707C129.243 293.653 140.844 281.493 137.926 271.547C135.008 261.601 118.676 257.635 101.448 262.689C84.2199 267.744 72.6191 279.904 75.5369 289.85C78.4548 299.796 94.7864 303.762 112.015 298.707Z" fill="#263238"/>
<path d="M54.6184 296.277L97.9762 250.851L159.005 265.652L160.212 269.759L116.862 315.207L55.8254 300.384L54.6184 296.277Z" fill="#37474F"/>
<path opacity="0.2" d="M116.862 315.207L115.655 311.1L54.6184 296.277L55.8254 300.384L116.862 315.207Z" fill="white"/>
<path opacity="0.2" d="M115.655 311.1L55.7224 297.278L55.8254 300.384L54.6184 296.277L115.655 311.1Z" fill="white"/>
<path d="M97.9762 250.851L159.005 265.652L115.655 311.1L54.6184 296.277L97.9762 250.851Z" fill="#455A64"/>
<path d="M69.0368 320.02C69.345 318.918 69.7236 317.836 70.1702 316.782C70.5742 315.616 70.8939 314.424 71.127 313.212C71.4963 310.747 71.671 308.257 71.6496 305.764C71.8024 301.481 72.8636 297.278 74.7628 293.436C76.5455 289.827 79.0978 286.652 82.2399 284.135C85.3821 281.619 89.0377 279.822 92.9494 278.871C95.2277 278.339 97.5667 278.114 99.9046 278.201C101.019 278.231 102.13 278.354 103.224 278.569C104.365 278.797 105.719 278.988 106.668 279.717C107.198 280.122 106.727 281.255 106.109 281.263C105.038 281.199 103.972 281.076 102.915 280.895C101.899 280.784 100.883 280.718 99.8604 280.703C97.9508 280.687 96.0453 280.882 94.1785 281.285C90.4852 282.04 87.0318 283.685 84.1174 286.076C81.2941 288.468 78.9949 291.418 77.3637 294.74C75.7326 298.062 74.8045 301.684 74.6377 305.381C74.3801 310.533 74.1888 316.421 70.494 320.403C70.0745 320.896 68.816 321.014 69.0368 320.02Z" fill="#F34414"/>
<path d="M46.3679 340.238L46.4783 340.363C46.6302 340.53 46.8361 340.638 47.0596 340.667C47.2832 340.697 47.51 340.647 47.7 340.525C52.1749 337.677 59.8367 331.995 60.212 331.693C56.9 336.198 51.3727 340.202 49.3119 341.504C49.186 341.572 49.0755 341.665 48.9875 341.777C48.8994 341.89 48.8357 342.019 48.8004 342.158C48.7652 342.296 48.759 342.44 48.7824 342.581C48.8059 342.722 48.8583 342.857 48.9365 342.976C49.1122 343.188 49.3618 343.326 49.6349 343.362C49.908 343.397 50.1844 343.328 50.4085 343.168C52.5576 341.813 59.1375 337.235 63.6565 330.656C59.4098 338.752 52.7122 343.411 50.2319 345.199C50.1224 345.279 50.0312 345.381 49.9643 345.499C49.8974 345.617 49.8563 345.748 49.8438 345.883C49.8313 346.018 49.8476 346.154 49.8916 346.282C49.9357 346.411 50.0065 346.528 50.0994 346.627C50.2563 346.795 50.4683 346.9 50.6967 346.924C50.925 346.949 51.1545 346.89 51.3433 346.759C53.8751 345 58.8578 341.247 62.2876 336.109C60.4402 340.827 55.9653 345.39 54.0444 347.208C53.9519 347.294 53.8781 347.399 53.8277 347.514C53.7772 347.63 53.7512 347.755 53.7512 347.882C53.7512 348.008 53.7772 348.133 53.8277 348.249C53.8781 348.365 53.9519 348.469 54.0444 348.555C54.6553 349.085 55.1116 348.732 55.7666 348.261C55.6609 348.412 55.6112 348.595 55.626 348.779C55.6408 348.963 55.7191 349.137 55.8476 349.269C56.0068 349.436 56.2212 349.541 56.4511 349.562C56.6811 349.584 56.9111 349.522 57.0988 349.387C61.1045 346.394 64.2851 342.433 66.3429 337.876C70.3247 329.287 71.8776 320.771 69.7064 319.682C67.3218 318.497 66.4165 323.053 58.8578 329.633C54.9985 332.996 50.8842 336.054 46.5519 338.781C46.4329 338.856 46.332 338.956 46.2564 339.075C46.1808 339.193 46.1325 339.327 46.1149 339.466C46.0973 339.606 46.1109 339.747 46.1546 339.881C46.1984 340.014 46.2712 340.136 46.3679 340.238ZM57.1503 346.921C62.3023 342.123 65.1948 335.292 66.8508 331.208C65.4156 336.087 63.8185 341.306 57.1503 346.921Z" fill="#F34414"/>
<path d="M68.6614 317.135C69.2616 316.892 69.9204 316.832 70.5547 316.963C71.1889 317.094 71.7701 317.41 72.2248 317.871C72.6794 318.332 72.9871 318.918 73.1089 319.554C73.2307 320.19 73.1613 320.848 72.9093 321.445C72.6572 322.041 72.234 322.55 71.6931 322.906C71.1521 323.262 70.5177 323.45 69.8701 323.445C69.2225 323.441 68.5907 323.245 68.0546 322.881C67.5185 322.518 67.1022 322.004 66.8582 321.404C66.6951 321.005 66.6124 320.578 66.6148 320.148C66.6172 319.717 66.7047 319.291 66.8723 318.895C67.0399 318.498 67.2842 318.138 67.5912 317.836C67.8983 317.534 68.262 317.296 68.6614 317.135Z" fill="#F34414"/>
<path opacity="0.2" d="M68.6614 317.135C69.2616 316.892 69.9204 316.832 70.5547 316.963C71.1889 317.094 71.7701 317.41 72.2248 317.871C72.6794 318.332 72.9871 318.918 73.1089 319.554C73.2307 320.19 73.1613 320.848 72.9093 321.445C72.6572 322.041 72.234 322.55 71.6931 322.906C71.1521 323.262 70.5177 323.45 69.8701 323.445C69.2225 323.441 68.5907 323.245 68.0546 322.881C67.5185 322.518 67.1022 322.004 66.8582 321.404C66.6951 321.005 66.6124 320.578 66.6148 320.148C66.6172 319.717 66.7047 319.291 66.8723 318.895C67.0399 318.498 67.2842 318.138 67.5912 317.836C67.8983 317.534 68.262 317.296 68.6614 317.135Z" fill="black"/>
<path d="M110.65 279.467C110.517 279.129 110.296 278.833 110.01 278.609C109.724 278.385 109.384 278.241 109.024 278.193C108.032 278.01 107.011 278.062 106.043 278.346C105.075 278.63 104.188 279.137 103.452 279.827C103.176 280.063 102.967 280.368 102.848 280.71C102.729 281.053 102.704 281.422 102.775 281.778C102.834 281.991 103.084 282.845 103.15 283.058C103.285 283.395 103.506 283.691 103.792 283.914C104.078 284.138 104.417 284.282 104.777 284.332C105.769 284.515 106.79 284.463 107.757 284.179C108.725 283.895 109.613 283.388 110.348 282.698C110.623 282.461 110.83 282.156 110.949 281.813C111.068 281.471 111.094 281.103 111.026 280.747C110.967 280.534 110.716 279.68 110.65 279.467Z" fill="#263238"/>
<path d="M104.394 283.044C102.598 282.609 102.186 281.167 103.452 279.827C104.188 279.137 105.075 278.63 106.043 278.346C107.011 278.062 108.032 278.01 109.024 278.193C110.819 278.628 111.232 280.07 109.966 281.41C109.231 282.101 108.343 282.609 107.375 282.893C106.407 283.177 105.386 283.228 104.394 283.044Z" fill="#37474F"/>
<path d="M58.3795 74.0269H58.1219C57.7844 74.0646 57.4704 74.2179 57.2329 74.4607C56.9955 74.7034 56.8493 75.0208 56.8192 75.3591C56.2009 83.3741 56.0832 97.8439 56.1494 98.5652C53.6985 90.4692 53.8678 80.1136 54.1549 76.4852C54.1905 76.268 54.1795 76.0457 54.1227 75.833C54.0659 75.6204 53.9646 75.4222 53.8254 75.2517C53.6862 75.0812 53.5124 74.9422 53.3154 74.844C53.1184 74.7458 52.9028 74.6905 52.6829 74.682C52.2545 74.6971 51.8486 74.877 51.5496 75.1842C51.2507 75.4913 51.0819 75.902 51.0784 76.3306C50.7693 80.1652 50.3424 92.3165 54.2505 103.776C48.311 91.264 48.7305 78.9066 48.8115 74.2698C48.8122 74.0655 48.7704 73.8633 48.6888 73.676C48.6071 73.4888 48.4873 73.3205 48.3371 73.1821C48.1869 73.0436 48.0095 72.938 47.8162 72.8718C47.6229 72.8056 47.4179 72.7804 47.2144 72.7978H47.1776C46.8321 72.8392 46.5124 73.0016 46.2753 73.2562C46.0381 73.5109 45.8989 73.8413 45.8822 74.1888C45.7129 78.8551 45.735 88.32 48.8262 97.152C44.7782 90.6237 43.3136 81.041 42.8573 77.0519C42.8392 76.8653 42.7836 76.6843 42.6938 76.5197C42.604 76.3552 42.4819 76.2105 42.3348 76.0943C42.1877 75.9781 42.0186 75.8929 41.8377 75.8437C41.6569 75.7945 41.4679 75.7824 41.2822 75.808C40.0825 76.073 40.0973 76.9415 40.0678 78.1559C39.9784 77.8923 39.8006 77.6677 39.5645 77.5201C39.3284 77.3726 39.0486 77.3112 38.7725 77.3463C38.4353 77.4008 38.1275 77.5708 37.9019 77.8273C37.6763 78.0837 37.547 78.4107 37.536 78.752C37.5212 86.3327 39.4306 93.7931 43.0854 100.435C49.8787 113.072 58.799 122.706 62.0963 121.043C65.7027 119.225 60.9997 113.984 59.8883 98.8301C59.3184 91.0917 59.3504 83.3207 59.984 75.5872C59.9976 75.375 59.9651 75.1623 59.8887 74.9638C59.8123 74.7653 59.6937 74.5857 59.5413 74.4374C59.3888 74.2891 59.2059 74.1756 59.0054 74.1048C58.8048 74.0339 58.5913 74.0073 58.3795 74.0269ZM40.48 81.0336C41.6061 91.6615 47.2733 101.369 50.7177 107.088C46.0809 100.913 41.216 94.208 40.48 81.0336Z" fill="#F34414"/>
<path d="M186.672 146.008C183.835 141.309 180.276 137.087 176.125 133.496C172.417 130.164 168.348 127.256 163.995 124.826C155.373 119.992 145.662 117.436 135.777 117.399C130.81 117.402 125.871 118.147 121.123 119.607C116.687 121.102 112.412 123.038 108.361 125.385C104.622 127.446 100.928 129.617 97.0342 131.376C96.0258 131.84 95.6358 132.002 94.7452 132.34C93.6927 132.745 92.6329 133.076 91.5583 133.407C89.7373 133.95 87.8609 134.286 85.9647 134.408C81.6317 134.664 77.3192 133.64 73.5631 131.464C71.4376 130.27 69.4902 128.784 67.7782 127.048C66.8353 126.14 65.9688 125.155 65.1874 124.104C64.893 123.685 64.5986 123.265 64.2822 122.861C64.0036 122.495 63.6824 122.164 63.3254 121.874C62.7363 121.458 62.2873 120.873 62.0374 120.196C61.6178 119.416 60.2194 119.46 60.4476 120.527C60.6758 121.595 60.5286 122.735 60.8303 123.773C61.0788 124.504 61.4123 125.203 61.8239 125.856C62.421 126.936 63.0873 127.976 63.8185 128.969C65.301 130.883 67.0625 132.562 69.0441 133.952C72.5005 136.454 76.5147 138.076 80.7391 138.677C89.6668 139.877 97.9247 136.27 105.594 132.09C109.37 130.037 113.086 127.873 116.972 126.018C121.122 124.025 125.553 122.682 130.11 122.036C139.817 120.79 149.677 122.322 158.549 126.452C163.418 128.675 168.008 131.464 172.224 134.762C177.015 138.508 181.328 142.858 185.641 147.126C186.414 147.877 187.084 146.707 186.672 146.008Z" fill="#F34414"/>
<path d="M66.1223 122.08C65.8741 123.031 65.35 123.886 64.6159 124.539C63.8818 125.191 62.9709 125.611 61.9981 125.746C61.0253 125.881 60.0343 125.725 59.1503 125.297C58.2664 124.869 57.5291 124.188 57.0317 123.342C56.5343 122.495 56.2991 121.519 56.3557 120.539C56.4123 119.558 56.7583 118.617 57.3499 117.833C57.9415 117.049 58.7522 116.458 59.6795 116.134C60.6068 115.811 61.6092 115.77 62.56 116.016C63.1925 116.18 63.7865 116.466 64.308 116.86C64.8295 117.253 65.2682 117.746 65.5991 118.309C65.93 118.873 66.1465 119.496 66.2363 120.143C66.3261 120.79 66.2873 121.448 66.1223 122.08Z" fill="#F34414"/>
<path opacity="0.2" d="M66.1223 122.08C65.8741 123.031 65.35 123.886 64.6159 124.539C63.8818 125.191 62.9709 125.611 61.9981 125.746C61.0253 125.881 60.0343 125.725 59.1503 125.297C58.2664 124.869 57.5291 124.188 57.0317 123.342C56.5343 122.495 56.2991 121.519 56.3557 120.539C56.4123 119.558 56.7583 118.617 57.3499 117.833C57.9415 117.049 58.7522 116.458 59.6795 116.134C60.6068 115.811 61.6092 115.77 62.56 116.016C63.1925 116.18 63.7865 116.466 64.308 116.86C64.8295 117.253 65.2682 117.746 65.5991 118.309C65.93 118.873 66.1465 119.496 66.2363 120.143C66.3261 120.79 66.2873 121.448 66.1223 122.08Z" fill="black"/>
<path d="M259.587 119.652L189.542 189.623L93.9062 163.996L92.1619 157.475L162.207 87.4736L257.843 113.131L259.587 119.652Z" fill="#37474F"/>
<path opacity="0.2" d="M162.207 87.4736L163.951 93.9946L259.587 119.652L257.843 113.131L162.207 87.4736Z" fill="white"/>
<path opacity="0.2" d="M163.951 93.9946L257.88 118.04L257.843 113.131L259.587 119.652L163.951 93.9946Z" fill="white"/>
<path d="M189.542 189.623L93.9136 163.996L163.951 93.9946L259.587 119.652L189.542 189.623Z" fill="#455A64"/>
<path d="M227.321 132.598C225.297 125.37 218.54 119.431 207.449 116.465C185.126 110.474 153.78 118.864 137.433 135.203C129.403 143.226 126.504 151.668 128.255 158.902C128.255 159.013 128.299 159.138 128.329 159.248L137.764 194.503C135.807 187.194 138.684 178.59 146.861 170.414C163.208 154.074 194.547 145.691 216.87 151.682C228.035 154.678 234.821 160.698 236.778 168.007L227.424 132.797L227.321 132.598Z" fill="#37474F"/>
<path d="M231.442 148.002C229.418 140.775 222.662 134.835 211.57 131.869C189.248 125.878 157.901 134.268 141.555 150.608C133.532 158.63 130.625 167.072 132.384 174.299C132.384 174.417 132.421 174.535 132.451 174.653L133.643 179.069C131.685 171.76 134.563 163.156 142.732 154.987C159.079 138.648 190.425 130.257 212.748 136.248C223.913 139.244 230.699 145.264 232.62 152.573L231.442 148.157V148.002Z" fill="#F34414"/>
<path opacity="0.2" d="M152.742 153.014C142.49 155.038 137.787 143.513 145.654 128.483C142.722 130.465 139.98 132.715 137.463 135.203C129.433 143.225 126.533 151.667 128.285 158.902C128.285 159.013 128.329 159.138 128.358 159.248L137.794 194.503C135.836 187.194 138.714 178.59 146.891 170.413C163.237 154.074 194.576 145.691 216.899 151.682C190.44 142.497 166.41 150.321 152.742 153.014Z" fill="black"/>
<path d="M194.943 209.851C222.285 202.535 241.026 183.808 236.802 168.023C232.578 152.237 206.989 145.372 179.648 152.687C152.306 160.003 133.566 178.731 137.79 194.516C142.013 210.301 167.602 217.167 194.943 209.851Z" fill="#263238"/>
<path d="M194.422 207.903C220.715 200.868 238.839 183.24 234.903 168.531C230.967 153.821 206.462 147.601 180.169 154.636C153.876 161.671 135.752 179.299 139.688 194.008C143.624 208.717 168.129 214.938 194.422 207.903Z" fill="#37474F"/>
<path opacity="0.2" d="M184 200.611C167.808 195.106 165.6 171.311 178.966 159.101L156.437 165.136C153.629 166.994 150.996 169.103 148.569 171.436C132.76 186.811 137.271 203.673 158.652 209.098C179.216 214.316 207.891 207.044 224.112 192.795C211.88 199.213 195.04 204.35 184 200.611Z" fill="black"/>
<path d="M148.598 171.437C147.804 172.173 147.075 172.99 146.39 173.77C147.377 174.094 148.4 174.403 149.474 174.675C170.818 180.099 200.994 172.033 216.804 156.658C217.598 155.922 218.327 155.105 219.012 154.332C218.018 154.001 217.002 153.692 215.92 153.419C194.554 147.995 164.408 156.032 148.598 171.437Z" fill="black"/>
</svg>
