<svg width="15" height="16" viewBox="0 0 15 16" fill="none" xmlns="http://www.w3.org/2000/svg">
<path d="M15 12.5764V15.5764H12V13.3264H9.75V11.0764H7.5L5.805 9.38142C5.3925 9.50892 4.9575 9.57642 4.5 9.57642C3.30653 9.57642 2.16193 9.10231 1.31802 8.2584C0.474106 7.41448 0 6.26989 0 5.07642C0 3.88294 0.474106 2.73835 1.31802 1.89444C2.16193 1.05052 3.30653 0.576416 4.5 0.576416C5.69347 0.576416 6.83807 1.05052 7.68198 1.89444C8.52589 2.73835 9 3.88294 9 5.07642C9 5.53392 8.9325 5.96892 8.805 6.38142L15 12.5764ZM3.75 2.82642C3.35218 2.82642 2.97064 2.98445 2.68934 3.26576C2.40804 3.54706 2.25 3.92859 2.25 4.32642C2.25 4.72424 2.40804 5.10577 2.68934 5.38708C2.97064 5.66838 3.35218 5.82642 3.75 5.82642C4.14782 5.82642 4.52936 5.66838 4.81066 5.38708C5.09196 5.10577 5.25 4.72424 5.25 4.32642C5.25 3.92859 5.09196 3.54706 4.81066 3.26576C4.52936 2.98445 4.14782 2.82642 3.75 2.82642Z" fill="#2F2F3B"/>
</svg>
