<svg width="246" height="57" viewBox="0 0 246 57" fill="none" xmlns="http://www.w3.org/2000/svg">
<path d="M28.605 40.06C32.565 40.06 35.76 38.125 37.74 35.29L41.88 38.485C38.955 42.355 34.32 44.92 28.605 44.92C18.705 44.92 12 37.27 12 28.27C12 19.27 18.705 11.62 28.605 11.62C34.32 11.62 38.955 14.185 41.88 18.055L37.74 21.25C35.76 18.415 32.565 16.48 28.605 16.48C22.035 16.48 17.31 21.7 17.31 28.27C17.31 34.885 22.035 40.06 28.605 40.06ZM53.1855 44.695C48.6855 44.695 45.6255 42.13 45.6255 38.125C45.6255 34.705 48.2805 32.23 53.0955 31.42L60.4305 30.205V29.035C60.4305 26.245 58.3605 24.535 55.4355 24.535C52.9605 24.535 51.0255 25.66 49.7205 27.505L46.2555 24.85C48.2805 22.15 51.5205 20.44 55.5705 20.44C61.6905 20.44 65.0655 24.04 65.0655 29.035V44.02H60.4305V41.455C58.8105 43.435 55.9755 44.695 53.1855 44.695ZM50.3055 37.945C50.3055 39.7 51.7005 40.915 54.0405 40.915C56.8755 40.915 59.0805 39.565 60.4305 37.405V33.49L54.3105 34.525C51.4755 35.02 50.3055 36.235 50.3055 37.945ZM72.3309 55.09V21.34H76.9659V23.68C78.9009 21.61 81.3309 20.44 84.6159 20.44C91.7259 20.44 96.1809 26.065 96.1809 32.68C96.1809 39.295 91.7259 44.92 84.6159 44.92C81.3309 44.92 78.9009 43.75 76.9659 41.68V55.09H72.3309ZM84.0309 24.805C81.0609 24.805 78.5859 26.2 76.9659 28.675V36.685C78.6309 39.205 81.1059 40.555 84.0309 40.555C88.3959 40.555 91.3209 37.135 91.3209 32.68C91.3209 28.225 88.3959 24.805 84.0309 24.805ZM103.754 24.985H99.4793L103.394 12.52H108.659L103.754 24.985ZM107.51 44.02L119.795 12.52H126.635L138.92 44.02H133.385L130.055 35.2H116.33L113 44.02H107.51ZM118.04 30.79H128.345L123.215 17.2L118.04 30.79ZM139.313 21.34H144.308L150.968 38.98L157.583 21.34H162.623L154.028 44.02H147.863L139.313 21.34ZM186.981 40.33C184.866 43.165 181.401 44.92 177.171 44.92C169.341 44.92 164.706 39.295 164.706 32.68C164.706 25.885 169.026 20.44 176.226 20.44C182.481 20.44 186.531 24.715 186.531 30.475C186.531 31.51 186.396 32.545 186.216 33.22H169.476C169.791 38.17 172.806 40.735 177.171 40.735C179.916 40.735 182.211 39.52 183.606 37.63L186.981 40.33ZM176.136 24.31C172.761 24.31 170.421 26.245 169.701 29.755H181.896C181.806 26.92 179.781 24.31 176.136 24.31ZM192.609 44.02V21.34H197.244V23.545C198.954 21.745 201.204 20.44 204.444 20.44C209.439 20.44 213.264 23.815 213.264 30.385V44.02H208.584V30.565C208.584 26.965 206.604 24.805 203.364 24.805C200.259 24.805 198.414 26.74 197.244 28.72V44.02H192.609ZM222.811 16.3C221.101 16.3 219.661 14.86 219.661 13.15C219.661 11.44 221.101 10 222.811 10C224.521 10 225.961 11.44 225.961 13.15C225.961 14.86 224.521 16.3 222.811 16.3ZM220.471 44.02V21.34H225.106V44.02H220.471ZM232.687 44.02V21.34H237.322V23.905C238.897 22.15 240.877 20.89 243.667 20.89C244.387 20.89 245.062 21.025 245.647 21.205V25.75C244.927 25.57 244.207 25.435 243.262 25.435C240.382 25.435 238.492 26.965 237.322 28.9V44.02H232.687Z" fill="#2F2F3B"/>
<path d="M192.609 21.34V44.02H197.244V28.72C198.414 26.74 200.259 24.805 203.364 24.805C206.604 24.805 208.584 26.965 208.584 30.565V44.02H213.264V30.385C213.264 23.815 209.439 20.44 204.444 20.44C201.204 20.44 198.954 21.745 197.244 23.545V21.34H192.609Z" fill="#2F2F3B"/>
<g clip-path="url(#clip0_24_294)">
<path d="M28.605 40.06C32.565 40.06 35.76 38.125 37.74 35.29L41.88 38.485C38.955 42.355 34.32 44.92 28.605 44.92C18.705 44.92 12 37.27 12 28.27C12 19.27 18.705 11.62 28.605 11.62C34.32 11.62 38.955 14.185 41.88 18.055L37.74 21.25C35.76 18.415 32.565 16.48 28.605 16.48C22.035 16.48 17.31 21.7 17.31 28.27C17.31 34.885 22.035 40.06 28.605 40.06ZM53.1855 44.695C48.6855 44.695 45.6255 42.13 45.6255 38.125C45.6255 34.705 48.2805 32.23 53.0955 31.42L60.4305 30.205V29.035C60.4305 26.245 58.3605 24.535 55.4355 24.535C52.9605 24.535 51.0255 25.66 49.7205 27.505L46.2555 24.85C48.2805 22.15 51.5205 20.44 55.5705 20.44C61.6905 20.44 65.0655 24.04 65.0655 29.035V44.02H60.4305V41.455C58.8105 43.435 55.9755 44.695 53.1855 44.695ZM50.3055 37.945C50.3055 39.7 51.7005 40.915 54.0405 40.915C56.8755 40.915 59.0805 39.565 60.4305 37.405V33.49L54.3105 34.525C51.4755 35.02 50.3055 36.235 50.3055 37.945ZM72.3309 55.09V21.34H76.9659V23.68C78.9009 21.61 81.3309 20.44 84.6159 20.44C91.7259 20.44 96.1809 26.065 96.1809 32.68C96.1809 39.295 91.7259 44.92 84.6159 44.92C81.3309 44.92 78.9009 43.75 76.9659 41.68V55.09H72.3309ZM84.0309 24.805C81.0609 24.805 78.5859 26.2 76.9659 28.675V36.685C78.6309 39.205 81.1059 40.555 84.0309 40.555C88.3959 40.555 91.3209 37.135 91.3209 32.68C91.3209 28.225 88.3959 24.805 84.0309 24.805ZM103.754 24.985H99.4793L103.394 12.52H108.659L103.754 24.985ZM107.51 44.02L119.795 12.52H126.635L138.92 44.02H133.385L130.055 35.2H116.33L113 44.02H107.51ZM118.04 30.79H128.345L123.215 17.2L118.04 30.79ZM139.313 21.34H144.308L150.968 38.98L157.583 21.34H162.623L154.028 44.02H147.863L139.313 21.34ZM186.981 40.33C184.866 43.165 181.401 44.92 177.171 44.92C169.341 44.92 164.706 39.295 164.706 32.68C164.706 25.885 169.026 20.44 176.226 20.44C182.481 20.44 186.531 24.715 186.531 30.475C186.531 31.51 186.396 32.545 186.216 33.22H169.476C169.791 38.17 172.806 40.735 177.171 40.735C179.916 40.735 182.211 39.52 183.606 37.63L186.981 40.33ZM176.136 24.31C172.761 24.31 170.421 26.245 169.701 29.755H181.896C181.806 26.92 179.781 24.31 176.136 24.31ZM192.609 44.02V21.34H197.244V23.545C198.954 21.745 201.204 20.44 204.444 20.44C209.439 20.44 213.264 23.815 213.264 30.385V44.02H208.584V30.565C208.584 26.965 206.604 24.805 203.364 24.805C200.259 24.805 198.414 26.74 197.244 28.72V44.02H192.609ZM222.811 16.3C221.101 16.3 219.661 14.86 219.661 13.15C219.661 11.44 221.101 10 222.811 10C224.521 10 225.961 11.44 225.961 13.15C225.961 14.86 224.521 16.3 222.811 16.3ZM220.471 44.02V21.34H225.106V44.02H220.471ZM232.687 44.02V21.34H237.322V23.905C238.897 22.15 240.877 20.89 243.667 20.89C244.387 20.89 245.062 21.025 245.647 21.205V25.75C244.927 25.57 244.207 25.435 243.262 25.435C240.382 25.435 238.492 26.965 237.322 28.9V44.02H232.687Z" fill="#F34414"/>
<path d="M192.609 21.34V44.02H197.244V28.72C198.414 26.74 200.259 24.805 203.364 24.805C206.604 24.805 208.584 26.965 208.584 30.565V44.02H213.264V30.385C213.264 23.815 209.439 20.44 204.444 20.44C201.204 20.44 198.954 21.745 197.244 23.545V21.34H192.609Z" fill="#F34414"/>
</g>
<path fill-rule="evenodd" clip-rule="evenodd" d="M0.109938 28.2772C0.184336 28.3575 1.69325 29.14 4.7754 30.6965C9.79934 33.2337 9.55179 33.1261 9.79758 32.8803C10.0214 32.6565 10.0216 32.6571 8.88961 30.2128L7.86474 28L8.88961 25.7871C10.0216 23.3428 10.0214 23.3434 9.79758 23.1196C9.55179 22.8738 9.79934 22.7662 4.7754 25.3034C1.69325 26.86 0.184336 27.6424 0.109938 27.7227C0.0283841 27.8107 0 27.8823 0 28C0 28.1176 0.0283841 28.1893 0.109938 28.2772Z" fill="#FF3700"/>
<g clip-path="url(#clip1_24_294)">
<g clip-path="url(#clip2_24_294)">
<path fill-rule="evenodd" clip-rule="evenodd" d="M0.109938 28.2776C0.184336 28.3579 1.69325 29.1403 4.7754 30.6969C9.79934 33.2341 9.55179 33.1264 9.79758 32.8807C10.0214 32.6569 10.0216 32.6574 8.88961 30.2132L7.86474 28.0003L8.88961 25.7874C10.0216 23.3432 10.0214 23.3438 9.79758 23.12C9.55179 22.8742 9.79934 22.7666 4.7754 25.3037C1.69325 26.8603 0.184336 27.6427 0.109938 27.723C0.0283841 27.811 0 27.8827 0 28.0003C0 28.118 0.0283841 28.1896 0.109938 28.2776Z" fill="#2F2F3B"/>
</g>
</g>
<path fill-rule="evenodd" clip-rule="evenodd" d="M29.2772 56.8901C29.3575 56.8157 30.14 55.3068 31.6965 52.2246C34.2337 47.2007 34.1261 47.4482 33.8803 47.2024C33.6565 46.9786 33.6571 46.9784 31.2128 48.1104L29 49.1353L26.7871 48.1104C24.3428 46.9784 24.3434 46.9786 24.1196 47.2024C23.8738 47.4482 23.7662 47.2007 26.3034 52.2246C27.86 55.3068 28.6424 56.8157 28.7227 56.8901C28.8107 56.9716 28.8823 57 29 57C29.1176 57 29.1893 56.9716 29.2772 56.8901Z" fill="#FF3700"/>
<g clip-path="url(#clip3_24_294)">
<g clip-path="url(#clip4_24_294)">
<path fill-rule="evenodd" clip-rule="evenodd" d="M29.2776 56.8901C29.3579 56.8157 30.1403 55.3068 31.6969 52.2246C34.2341 47.2007 34.1264 47.4482 33.8807 47.2024C33.6569 46.9786 33.6574 46.9784 31.2132 48.1104L29.0003 49.1353L26.7874 48.1104C24.3432 46.9784 24.3438 46.9786 24.12 47.2024C23.8742 47.4482 23.7666 47.2007 26.3037 52.2246C27.8603 55.3068 28.6427 56.8157 28.723 56.8901C28.811 56.9716 28.8827 57 29.0003 57C29.118 57 29.1896 56.9716 29.2776 56.8901Z" fill="#2F2F3B"/>
</g>
</g>
<path fill-rule="evenodd" clip-rule="evenodd" d="M28.7228 0.109938C28.6425 0.184336 27.86 1.69325 26.3035 4.7754C23.7663 9.79934 23.8739 9.55179 24.1197 9.79758C24.3435 10.0214 24.3429 10.0216 26.7872 8.88961L29 7.86474L31.2129 8.88961C33.6572 10.0216 33.6566 10.0214 33.8804 9.79758C34.1262 9.55179 34.2338 9.79934 31.6966 4.7754C30.14 1.69325 29.3576 0.184336 29.2773 0.109938C29.1893 0.0283841 29.1177 0 29 0C28.8824 0 28.8107 0.0283841 28.7228 0.109938Z" fill="#FF3700"/>
<g clip-path="url(#clip5_24_294)">
<g clip-path="url(#clip6_24_294)">
<path fill-rule="evenodd" clip-rule="evenodd" d="M28.7224 0.109938C28.6421 0.184336 27.8597 1.69325 26.3031 4.7754C23.7659 9.79934 23.8736 9.55179 24.1193 9.79758C24.3431 10.0214 24.3426 10.0216 26.7868 8.88961L28.9997 7.86474L31.2126 8.88961C33.6568 10.0216 33.6562 10.0214 33.88 9.79758C34.1258 9.55179 34.2334 9.79934 31.6963 4.7754C30.1397 1.69325 29.3573 0.184336 29.277 0.109938C29.189 0.0283841 29.1173 0 28.9997 0C28.882 0 28.8104 0.0283841 28.7224 0.109938Z" fill="#2F2F3B"/>
</g>
</g>
<defs>
<clipPath id="clip0_24_294">
<rect width="95" height="45" fill="white" transform="translate(151 10)"/>
</clipPath>
<clipPath id="clip1_24_294">
<rect width="10" height="5" fill="white" transform="translate(0 23.0003)"/>
</clipPath>
<clipPath id="clip2_24_294">
<rect width="9.91418" height="10" fill="white" transform="translate(0 23.0003)"/>
</clipPath>
<clipPath id="clip3_24_294">
<rect width="10" height="5" fill="white" transform="matrix(0 -1 1 0 24.0003 57)"/>
</clipPath>
<clipPath id="clip4_24_294">
<rect width="9.91418" height="10" fill="white" transform="matrix(0 -1 1 0 24.0003 57)"/>
</clipPath>
<clipPath id="clip5_24_294">
<rect width="10" height="5" fill="white" transform="matrix(0 1 -1 0 33.9997 0)"/>
</clipPath>
<clipPath id="clip6_24_294">
<rect width="9.91418" height="10" fill="white" transform="matrix(0 1 -1 0 33.9997 0)"/>
</clipPath>
</defs>
</svg>
